<svg width="150" height="150" viewBox="0 0 150 150" fill="none" xmlns="http://www.w3.org/2000/svg">
<g clip-path="url(#clip0_583_2111)">
<path d="M144.44 150H5.55537C2.51314 150 0 147.727 0 144.976V5.02392C0 2.27272 2.51314 0 5.55537 0H144.44C147.482 0 149.995 2.27272 149.995 5.02392V144.856C150.127 147.727 147.614 150 144.44 150Z" fill="url(#paint0_linear_583_2111)"/>
<g opacity="0.5">
<path d="M147.085 50.001H3.04211" stroke="white" stroke-miterlimit="10" stroke-linecap="round" stroke-linejoin="round"/>
<path d="M147.085 66.6279H3.04211" stroke="white" stroke-miterlimit="10" stroke-linecap="round" stroke-linejoin="round"/>
<path d="M147.085 83.2549H3.04211" stroke="white" stroke-miterlimit="10" stroke-linecap="round" stroke-linejoin="round"/>
<path d="M147.085 100.001H3.04211" stroke="white" stroke-miterlimit="10" stroke-linecap="round" stroke-linejoin="round"/>
<path d="M147.085 116.628H3.04211" stroke="white" stroke-miterlimit="10" stroke-linecap="round" stroke-linejoin="round"/>
<path d="M147.085 133.254H3.04211" stroke="white" stroke-miterlimit="10" stroke-linecap="round" stroke-linejoin="round"/>
<path d="M147.085 33.374H3.04211" stroke="white" stroke-miterlimit="10" stroke-linecap="round" stroke-linejoin="round"/>
<path d="M147.085 16.6279H3.04211" stroke="white" stroke-miterlimit="10" stroke-linecap="round" stroke-linejoin="round"/>
<path d="M112.695 147.249V2.63184" stroke="white" stroke-miterlimit="10" stroke-linecap="round" stroke-linejoin="round"/>
<path d="M93.9121 147.249V2.63184" stroke="white" stroke-miterlimit="10" stroke-linecap="round" stroke-linejoin="round"/>
<path d="M74.9976 147.249V2.63184" stroke="white" stroke-miterlimit="10" stroke-linecap="round" stroke-linejoin="round"/>
<path d="M56.2152 147.249V2.63184" stroke="white" stroke-miterlimit="10" stroke-linecap="round" stroke-linejoin="round"/>
<path d="M37.4325 147.249V2.63184" stroke="white" stroke-miterlimit="10" stroke-linecap="round" stroke-linejoin="round"/>
<path d="M18.65 147.249V2.63184" stroke="white" stroke-miterlimit="10" stroke-linecap="round" stroke-linejoin="round"/>
<path d="M131.477 147.249V2.63184" stroke="white" stroke-miterlimit="10" stroke-linecap="round" stroke-linejoin="round"/>
</g>
<path d="M69.8391 120.694C71.6909 112.44 73.8072 105.383 76.4526 98.5645C76.9817 97.1291 77.6431 95.6937 78.3044 94.0191C79.8917 90.1913 83.3307 82.5358 82.008 80.2631C81.7435 79.7846 81.0821 79.4258 80.553 79.4258V79.4258C80.2741 79.4258 80.041 79.6262 79.8272 79.8054C76.3106 82.753 74.0164 90.1204 72.22 95.5741L71.6909 97.488C69.31 104.785 67.855 112.56 66.7969 120.335" stroke="white" stroke-width="2" stroke-miterlimit="10" stroke-linecap="round" stroke-linejoin="round"/>
<path d="M75.2621 121.052C76.9816 113.276 78.9657 106.578 81.4788 100.238C82.0079 98.8028 82.6692 97.3674 83.3306 95.8124C85.976 89.8315 89.1505 82.2956 86.9019 78.109C85.7114 75.9559 83.1983 74.5205 80.5529 74.5205C79.0979 74.5205 77.9075 74.8794 76.717 75.7167C71.6908 79.4248 69.0453 87.5588 67.0613 94.1377L66.5322 96.0516C64.1513 103.348 62.5641 111.004 61.6382 118.779" stroke="white" stroke-width="2" stroke-miterlimit="10" stroke-linecap="round" stroke-linejoin="round"/>
<path d="M80.9499 120.573C82.4049 114.234 84.2567 108.014 86.6375 101.794C89.4152 94.4969 95.8965 83.3725 91.6638 75.8366C88.2248 69.6165 79.3626 67.3437 73.2782 71.8892C66.2678 77.0327 63.6224 87.3198 61.2415 94.6165C58.9929 101.674 57.4057 108.971 56.3475 116.267" stroke="white" stroke-width="2" stroke-miterlimit="10" stroke-linecap="round" stroke-linejoin="round"/>
<path d="M86.902 119.019C88.357 113.277 89.9442 108.254 91.796 103.349C92.3251 102.153 92.8542 100.718 93.5155 99.2823C96.9546 91.5071 101.187 81.6985 96.69 73.5646C93.6478 68.0622 87.2988 64.4736 80.6853 64.4736C76.7171 64.4736 73.0135 65.6698 69.9713 67.9425C62.2996 73.6842 59.1251 83.4928 56.7442 91.3875L56.2152 93.1818C54.2311 99.5215 52.6439 106.1 51.5857 112.679" stroke="white" stroke-width="2" stroke-miterlimit="10" stroke-linecap="round" stroke-linejoin="round"/>
<path d="M93.2512 116.147C94.3094 112.2 95.6321 108.492 96.9548 105.023C97.3516 103.827 98.0129 102.511 98.542 101.195C102.113 92.9416 107.007 81.5779 101.452 71.4105C97.4839 64.2334 89.2831 59.5684 80.5532 59.5684C75.3946 59.5684 70.5006 61.1234 66.4002 64.1138C57.4058 70.8124 53.9668 81.4583 51.3214 89.9511L50.7923 91.7454C49.0728 97.1282 47.7501 102.511 46.6919 108.013" stroke="white" stroke-width="2" stroke-miterlimit="10" stroke-linecap="round" stroke-linejoin="round"/>
<path d="M99.8643 111.363C101.055 103.468 108.065 94.018 108.859 83.1329C109.52 73.085 105.816 66.6257 103.303 63.396C101.981 61.841 101.848 59.6879 102.51 57.8936C103.7 54.9032 104.626 49.9989 102.377 43.6592" stroke="white" stroke-width="2" stroke-miterlimit="10" stroke-linecap="round" stroke-linejoin="round"/>
<path d="M83.3308 28.9473C92.5898 34.2104 98.542 42.3444 98.9388 52.8707C99.071 56.6985 95.632 58.0143 91.3993 56.8181C82.4049 54.3061 61.1093 48.086 48.1468 81.1004C45.5014 87.799 44.0464 94.976 42.5914 102.153" stroke="white" stroke-width="2" stroke-miterlimit="10" stroke-linecap="round" stroke-linejoin="round"/>
<path d="M64.9453 29.5439C67.1939 29.5439 74.2042 29.5439 81.4791 33.0128C90.209 37.1994 95.7644 47.2473 92.8544 49.7593C89.6799 52.6301 83.9923 45.8119 66.268 52.3908C57.8027 55.5009 51.7182 61.9602 47.6178 69.2569C45.766 72.6062 44.1788 76.0751 42.9883 79.6636C41.2688 84.209 40.0784 88.8741 38.8879 93.5392" stroke="white" stroke-width="2" stroke-miterlimit="10" stroke-linecap="round" stroke-linejoin="round"/>
<path d="M54.8925 35.6451C58.5961 34.6882 61.7706 34.5685 64.5483 34.4489C80.1562 34.0901 86.1084 41.6259 84.2566 43.5398C82.8017 45.0948 79.6272 44.2575 75.13 44.736C62.432 46.1714 52.3794 52.7503 45.6336 62.3197C42.1945 67.224 39.6814 72.4872 37.6973 77.9896C37.3005 78.9465 37.036 80.0231 36.6392 80.98" stroke="white" stroke-width="2" stroke-miterlimit="10" stroke-linecap="round" stroke-linejoin="round"/>
<path d="M47.6176 43.7788C54.628 38.8745 61.2415 38.1568 66.1355 38.2764C68.1196 38.2764 73.0136 38.8745 73.675 40.5492C74.6009 42.8219 66.5324 39.7119 55.0248 46.6497C40.2105 55.5013 38.491 63.9942 38.491 63.9942" stroke="white" stroke-width="2" stroke-miterlimit="10" stroke-linecap="round" stroke-linejoin="round"/>
<path d="M106.081 105.383C106.081 105.383 114.15 89.7128 113.224 77.6315C112.695 69.8564 108.462 64.9521 107.801 61.4832C107.139 58.0143 108.991 57.0573 108.462 53.9473" stroke="white" stroke-width="2" stroke-miterlimit="10" stroke-linecap="round" stroke-linejoin="round"/>
<path d="M10.0527 31.6985V14.5693C10.0527 11.8079 12.2913 9.56934 15.0527 9.56934H34.5228" stroke="white" stroke-width="2" stroke-miterlimit="10" stroke-linecap="round" stroke-linejoin="round"/>
<path d="M34.5228 140.311H15.0527C12.2913 140.311 10.0527 138.072 10.0527 135.311V118.182" stroke="white" stroke-width="2" stroke-miterlimit="10" stroke-linecap="round" stroke-linejoin="round"/>
<path d="M139.943 31.6985V14.5693C139.943 11.8079 137.704 9.56934 134.943 9.56934H115.605" stroke="white" stroke-width="2" stroke-miterlimit="10" stroke-linecap="round" stroke-linejoin="round"/>
<path d="M115.604 140.311H134.942C137.704 140.311 139.942 138.072 139.942 135.311V118.182" stroke="white" stroke-width="2" stroke-miterlimit="10" stroke-linecap="round" stroke-linejoin="round"/>
</g>
<defs>
<linearGradient id="paint0_linear_583_2111" x1="0" y1="75.2829" x2="193.964" y2="75.2829" gradientUnits="userSpaceOnUse">
<stop offset="0.390081" stop-color="#1768E5"/>
<stop offset="1" stop-color="#00F0FF"/>
</linearGradient>
<clipPath id="clip0_583_2111">
<rect width="150" height="150" rx="10" fill="white"/>
</clipPath>
</defs>
</svg>
