<svg width="55" height="55" viewBox="0 0 55 55" fill="none" xmlns="http://www.w3.org/2000/svg">
<path class='fill' d="M27.5 55C42.6878 55 55 42.6878 55 27.5C55 12.3122 42.6878 0 27.5 0C12.3122 0 0 12.3122 0 27.5C0 42.6878 12.3122 55 27.5 55Z" fill="#6b798f"/>
<path d="M39.8563 24.0969C40.396 20.4944 37.6511 18.5573 33.9008 17.2648L35.1177 12.3836L32.1477 11.6445L30.9617 16.3969C30.1814 16.2009 29.3805 16.0187 28.5813 15.8366L29.7758 11.0533L26.8058 10.3125L25.5889 15.192C24.9415 15.0465 24.309 14.8976 23.6914 14.7452L23.6949 14.7297L19.5974 13.707L18.8067 16.8798C18.8067 16.8798 21.0119 17.3852 20.9655 17.4161C22.1686 17.7169 22.3852 18.5127 22.3491 19.1452L20.9638 24.7053C21.0474 24.7248 21.1505 24.7574 21.2731 24.8033L20.9586 24.7259L19.0164 32.5153C18.8686 32.8797 18.4956 33.428 17.6535 33.22C17.6844 33.263 15.4947 32.682 15.4947 32.682L14.02 36.0817L17.8872 37.0459C18.6056 37.2264 19.3103 37.4155 20.003 37.5925L18.7741 42.5287L21.7424 43.2678L22.9592 38.3866C23.7693 38.6043 24.5588 38.8088 25.3277 39.0002L24.1142 43.8608L27.0842 44.5998L28.3131 39.6739C33.38 40.633 37.1888 40.2463 38.7924 35.6641C40.0849 31.9756 38.7288 29.8461 36.063 28.4591C38.0052 28.0122 39.4661 26.7352 39.8563 24.0969ZM33.0672 33.6153C32.1511 37.3055 25.9378 35.31 23.9235 34.8098L25.5563 28.27C27.5706 28.7736 34.028 29.7688 33.0672 33.6153ZM33.9867 24.0436C33.1497 27.4003 27.9797 25.6936 26.3039 25.2759L27.7821 19.3462C29.4578 19.7639 34.8599 20.5425 33.9867 24.0436Z" fill="#020409"/>
<defs>
</defs>
</svg>
