<svg width="68" height="54" viewBox="0 0 68 54" fill="none" xmlns="http://www.w3.org/2000/svg">
<mask id="mask0_668_2356" style="mask-type:luminance" maskUnits="userSpaceOnUse" x="0" y="0" width="68" height="54">
<path d="M40.6668 0.333496H27.3335C14.7635 0.333496 8.47685 0.333496 4.57352 4.24016C1.76018 7.05016 0.973516 11.0968 0.753516 17.8335H67.2468C67.0268 11.0968 66.2402 7.05016 63.4268 4.24016C59.5235 0.333496 53.2368 0.333496 40.6668 0.333496ZM27.3335 53.6668H40.6668C53.2368 53.6668 59.5235 53.6668 63.4268 49.7602C67.3302 45.8535 67.3335 39.5702 67.3335 27.0002C67.3335 25.5291 67.3313 24.1402 67.3268 22.8335H0.673516C0.666849 24.1402 0.664627 25.5291 0.666849 27.0002C0.666849 39.5702 0.666849 45.8568 4.57352 49.7602C8.48018 53.6635 14.7635 53.6668 27.3335 53.6668Z" fill="white"/>
<path fill-rule="evenodd" clip-rule="evenodd" d="M11.5 40.3335C11.5 39.6705 11.7634 39.0346 12.2322 38.5657C12.7011 38.0969 13.337 37.8335 14 37.8335H27.3333C27.9964 37.8335 28.6323 38.0969 29.1011 38.5657C29.5699 39.0346 29.8333 39.6705 29.8333 40.3335C29.8333 40.9965 29.5699 41.6324 29.1011 42.1013C28.6323 42.5701 27.9964 42.8335 27.3333 42.8335H14C13.337 42.8335 12.7011 42.5701 12.2322 42.1013C11.7634 41.6324 11.5 40.9965 11.5 40.3335ZM33.1667 40.3335C33.1667 39.6705 33.4301 39.0346 33.8989 38.5657C34.3677 38.0969 35.0036 37.8335 35.6667 37.8335H40.6667C41.3297 37.8335 41.9656 38.0969 42.4344 38.5657C42.9033 39.0346 43.1667 39.6705 43.1667 40.3335C43.1667 40.9965 42.9033 41.6324 42.4344 42.1013C41.9656 42.5701 41.3297 42.8335 40.6667 42.8335H35.6667C35.0036 42.8335 34.3677 42.5701 33.8989 42.1013C33.4301 41.6324 33.1667 40.9965 33.1667 40.3335Z" fill="black"/>
</mask>
<g mask="url(#mask0_668_2356)">
<path class="fill" d="M-6 -13H74V67H-6V-13Z" fill="#6b798f"/>
</g>
<defs>
</defs>
</svg>
