<svg width="40" height="40" viewBox="0 0 40 40" fill="none" xmlns="http://www.w3.org/2000/svg">
  <path class="fill" d="M17 9.125H31.25V23.375H23V31.25H8.75V17H17V9.125ZM25.0482 12.5L27.4019 19.2172H25.8125L25.4297 18.125H23V21.875H29.75V10.625H18.5V17H21.6251L23.2016 12.5H25.0482ZM23.3458 16.625H24.9042L24.125 14.4013L23.3458 16.625ZM10.25 18.5V29.75H21.5V18.5H10.25Z" fill="none"/>
  <path class="fill" d="M17.1204 25.2725C16.9769 25.5029 16.8189 25.724 16.6475 25.9344C17.1912 26.2276 17.8087 26.3745 18.5 26.375V27.875C17.3684 27.875 16.3573 27.5746 15.5 26.9926C14.6427 27.5746 13.6316 27.875 12.5 27.875V26.375C13.1898 26.375 13.8073 26.228 14.3525 25.934C14.181 25.7238 14.0231 25.5028 13.8796 25.2725C13.4473 24.5697 13.1294 23.8026 12.9377 23H12.125V21.5H14.75V20.375H16.25V21.5H18.875V23H18.0623C17.8706 23.8026 17.5527 24.5697 17.1204 25.2725ZM14.4908 23C14.646 23.5191 14.8681 24.0158 15.1517 24.4775C15.2577 24.6477 15.374 24.8113 15.5 24.9672C15.6169 24.8228 15.7253 24.6717 15.8248 24.5149C16.1199 24.0429 16.3502 23.5334 16.5094 23H14.4908Z" fill="none"/>
</svg>
