<svg width="150" height="156" viewBox="0 0 150 156" fill="none" xmlns="http://www.w3.org/2000/svg">
<mask id="path-1-inside-1_195_2429" fill="white">
<path d="M75 25.6219L97.5212 58.8017H52.4787L75 25.6219Z"/>
<path d="M52.4787 58.8017L75 96.781H29.9575L52.4787 58.8017Z"/>
<path d="M97.5212 58.8017L120.042 96.781H75L97.5212 58.8017Z"/>
<path d="M75 96.781L97.5212 58.8017H52.4787L75 96.781Z"/>
<path d="M10.1983 33.969L75 25.6219L52.4787 58.8017L10.1983 33.969Z"/>
<path d="M140.227 33.969L75 25.6219L97.5212 58.8017L140.227 33.969Z"/>
<path d="M10.1983 33.969L52.4787 58.8017L29.9575 96.781L10.1983 33.969Z"/>
<path d="M140.227 33.969L97.5212 58.8017L120.042 96.781L140.227 33.969Z"/>
<path d="M29.9575 96.781H75L75.0001 152.498L29.9575 96.781Z"/>
<path d="M120.042 96.781H75L75.0001 152.498L120.042 96.781Z"/>
<path d="M2.54958 110.554L29.9575 96.781L75.0001 152.498L2.54958 110.554Z"/>
<path d="M10.1983 33.969L29.9575 96.781L2.54958 110.554L10.1983 33.969Z"/>
<path d="M147.45 110.554L120.042 96.781L75.0001 152.498L147.45 110.554Z"/>
<path d="M140.227 33.969L120.042 96.781L147.45 110.554L140.227 33.969Z"/>
<path d="M75 3.50211V25.6219L10.1983 33.969L75 3.50211Z"/>
<path d="M75 3.50211V25.6219L140.227 33.969L75 3.50211Z"/>
<path d="M7.64872 32.5083L75 0.580627V3.50211L10.1983 33.969L2.54958 110.554L75.0001 152.498L147.45 110.554L140.227 33.969L75 3.50211V0.580627L142.776 32.5083L150 111.806L75 155.419L0 111.806L7.64872 32.5083Z"/>
</mask>
<path d="M75 25.6219L97.5212 58.8017H52.4787L75 25.6219Z" fill="url(#paint0_linear_195_2429)"/>
<path d="M75 25.6219L97.5212 58.8017H52.4787L75 25.6219Z" fill="url(#paint1_linear_195_2429)"/>
<path d="M52.4787 58.8017L75 96.781H29.9575L52.4787 58.8017Z" fill="url(#paint2_linear_195_2429)"/>
<path d="M52.4787 58.8017L75 96.781H29.9575L52.4787 58.8017Z" fill="url(#paint3_linear_195_2429)"/>
<path d="M97.5212 58.8017L120.042 96.781H75L97.5212 58.8017Z" fill="url(#paint4_linear_195_2429)"/>
<path d="M97.5212 58.8017L120.042 96.781H75L97.5212 58.8017Z" fill="url(#paint5_linear_195_2429)"/>
<path d="M75 96.781L97.5212 58.8017H52.4787L75 96.781Z" fill="url(#paint6_linear_195_2429)"/>
<path d="M75 96.781L97.5212 58.8017H52.4787L75 96.781Z" fill="url(#paint7_linear_195_2429)"/>
<path d="M10.1983 33.969L75 25.6219L52.4787 58.8017L10.1983 33.969Z" fill="url(#paint8_linear_195_2429)"/>
<path d="M10.1983 33.969L75 25.6219L52.4787 58.8017L10.1983 33.969Z" fill="url(#paint9_linear_195_2429)"/>
<path d="M140.227 33.969L75 25.6219L97.5212 58.8017L140.227 33.969Z" fill="url(#paint10_linear_195_2429)"/>
<path d="M140.227 33.969L75 25.6219L97.5212 58.8017L140.227 33.969Z" fill="url(#paint11_linear_195_2429)"/>
<path d="M10.1983 33.969L52.4787 58.8017L29.9575 96.781L10.1983 33.969Z" fill="url(#paint12_linear_195_2429)"/>
<path d="M10.1983 33.969L52.4787 58.8017L29.9575 96.781L10.1983 33.969Z" fill="url(#paint13_linear_195_2429)"/>
<path d="M140.227 33.969L97.5212 58.8017L120.042 96.781L140.227 33.969Z" fill="url(#paint14_linear_195_2429)"/>
<path d="M140.227 33.969L97.5212 58.8017L120.042 96.781L140.227 33.969Z" fill="url(#paint15_linear_195_2429)"/>
<path d="M29.9575 96.781H75L75.0001 152.498L29.9575 96.781Z" fill="url(#paint16_linear_195_2429)"/>
<path d="M29.9575 96.781H75L75.0001 152.498L29.9575 96.781Z" fill="url(#paint17_linear_195_2429)"/>
<path d="M120.042 96.781H75L75.0001 152.498L120.042 96.781Z" fill="url(#paint18_linear_195_2429)"/>
<path d="M120.042 96.781H75L75.0001 152.498L120.042 96.781Z" fill="url(#paint19_linear_195_2429)"/>
<path d="M2.54958 110.554L29.9575 96.781L75.0001 152.498L2.54958 110.554Z" fill="url(#paint20_linear_195_2429)"/>
<path d="M2.54958 110.554L29.9575 96.781L75.0001 152.498L2.54958 110.554Z" fill="url(#paint21_linear_195_2429)"/>
<path d="M10.1983 33.969L29.9575 96.781L2.54958 110.554L10.1983 33.969Z" fill="url(#paint22_linear_195_2429)"/>
<path d="M10.1983 33.969L29.9575 96.781L2.54958 110.554L10.1983 33.969Z" fill="url(#paint23_linear_195_2429)"/>
<path d="M147.45 110.554L120.042 96.781L75.0001 152.498L147.45 110.554Z" fill="url(#paint24_linear_195_2429)"/>
<path d="M147.45 110.554L120.042 96.781L75.0001 152.498L147.45 110.554Z" fill="url(#paint25_linear_195_2429)"/>
<path d="M140.227 33.969L120.042 96.781L147.45 110.554L140.227 33.969Z" fill="url(#paint26_linear_195_2429)"/>
<path d="M140.227 33.969L120.042 96.781L147.45 110.554L140.227 33.969Z" fill="url(#paint27_linear_195_2429)"/>
<path d="M75 3.50211V25.6219L10.1983 33.969L75 3.50211Z" fill="url(#paint28_linear_195_2429)"/>
<path d="M75 3.50211V25.6219L10.1983 33.969L75 3.50211Z" fill="url(#paint29_linear_195_2429)"/>
<path d="M75 3.50211V25.6219L140.227 33.969L75 3.50211Z" fill="url(#paint30_linear_195_2429)"/>
<path d="M75 3.50211V25.6219L140.227 33.969L75 3.50211Z" fill="url(#paint31_linear_195_2429)"/>
<path d="M7.64872 32.5083L75 0.580627V3.50211L10.1983 33.969L2.54958 110.554L75.0001 152.498L147.45 110.554L140.227 33.969L75 3.50211V0.580627L142.776 32.5083L150 111.806L75 155.419L0 111.806L7.64872 32.5083Z" fill="url(#paint32_linear_195_2429)"/>
<path d="M7.64872 32.5083L75 0.580627V3.50211L10.1983 33.969L2.54958 110.554L75.0001 152.498L147.45 110.554L140.227 33.969L75 3.50211V0.580627L142.776 32.5083L150 111.806L75 155.419L0 111.806L7.64872 32.5083Z" fill="url(#paint33_linear_195_2429)"/>
<path d="M10.1983 33.969L9.13461 31.7066L7.85157 32.3098L7.71068 33.7206L10.1983 33.969ZM140.227 33.969L142.716 33.7343L142.581 32.3096L141.285 31.7039L140.227 33.969ZM75.0001 152.498L73.7475 154.661L75.0001 155.387L76.2527 154.661L75.0001 152.498ZM2.54958 110.554L0.0619507 110.305L-0.0982702 111.909L1.297 112.717L2.54958 110.554ZM147.45 110.554L148.703 112.717L150.09 111.914L149.939 110.319L147.45 110.554ZM72.9315 27.026L95.4527 60.2057L99.5897 57.3976L77.0685 24.2179L72.9315 27.026ZM97.5212 56.3017H52.4787V61.3017H97.5212V56.3017ZM54.5473 60.2057L77.0685 27.026L72.9315 24.2179L50.4102 57.3976L54.5473 60.2057ZM50.3284 60.0768L72.8496 98.0561L77.1504 95.5058L54.6291 57.5265L50.3284 60.0768ZM75 94.281H29.9575V99.281H75V94.281ZM32.1079 98.0561L54.6291 60.0768L50.3284 57.5265L27.8071 95.5058L32.1079 98.0561ZM95.3709 60.0768L117.892 98.0561L122.193 95.5058L99.6716 57.5265L95.3709 60.0768ZM120.042 94.281H75V99.281H120.042V94.281ZM77.1504 98.0561L99.6716 60.0768L95.3709 57.5265L72.8496 95.5058L77.1504 98.0561ZM10.5177 36.4485L75.3194 28.1014L74.6806 23.1424L9.87891 31.4895L10.5177 36.4485ZM53.7449 56.646L11.4644 31.8133L8.9322 36.1247L51.2126 60.9573L53.7449 56.646ZM140.544 31.4893L75.3173 23.1422L74.6827 28.1017L139.909 36.4488L140.544 31.4893ZM98.7779 60.9628L141.483 36.1302L138.97 31.8078L96.2645 56.6405L98.7779 60.9628ZM32.3423 96.0308L12.5831 33.2188L7.81351 34.7192L27.5727 97.5312L32.3423 96.0308ZM122.423 97.5458L142.607 34.7339L137.846 33.2042L117.662 96.0161L122.423 97.5458ZM72.5 96.781L72.5001 152.498L77.5001 152.498L77.5 96.781L72.5 96.781ZM76.9443 150.926L31.9017 95.2093L28.0133 98.3527L73.0559 154.07L76.9443 150.926ZM76.9443 154.07L121.987 98.3527L118.098 95.2093L73.0559 150.926L76.9443 154.07ZM3.67209 112.787L31.08 99.0148L28.835 94.5471L1.42706 108.32L3.67209 112.787ZM76.2527 150.334L3.80215 108.39L1.297 112.717L73.7475 154.661L76.2527 150.334ZM5.0372 110.802L12.6859 34.2175L7.71068 33.7206L0.0619507 110.305L5.0372 110.802ZM148.573 108.32L121.165 94.5471L118.92 99.0148L146.328 112.787L148.573 108.32ZM76.2527 154.661L148.703 112.717L146.198 108.39L73.7475 150.334L76.2527 154.661ZM149.939 110.319L142.716 33.7343L137.738 34.2038L144.961 110.788L149.939 110.319ZM72.5 3.50211V25.6219H77.5V3.50211H72.5ZM11.262 36.2315L76.0637 5.76454L73.9363 1.23969L9.13461 31.7066L11.262 36.2315ZM141.285 31.7039L76.058 1.23703L73.942 5.7672L139.169 36.2341L141.285 31.7039ZM72.5 0.580627V3.50211H77.5V0.580627H72.5ZM7.64872 32.5083L5.50695 27.9902L2.94413 29.2051L2.67182 32.0282L7.64872 32.5083ZM75 0.580627L77.1308 -3.94262L74.9933 -4.94954L72.8582 -3.93743L75 0.580627ZM0 111.806L-4.9769 111.326L-5.28468 114.517L-2.51349 116.128L0 111.806ZM75 155.419L72.4865 159.742L75 161.203L77.5135 159.742L75 155.419ZM150 111.806L152.513 116.128L155.269 114.526L154.979 111.352L150 111.806ZM142.776 32.5083L147.756 32.0547L147.496 29.2046L144.907 27.985L142.776 32.5083ZM9.79049 37.0263L77.1418 5.09868L72.8582 -3.93743L5.50695 27.9902L9.79049 37.0263ZM4.9769 112.286L12.6256 32.9883L2.67182 32.0282L-4.9769 111.326L4.9769 112.286ZM77.5135 151.097L2.51349 107.483L-2.51349 116.128L72.4865 159.742L77.5135 151.097ZM147.487 107.483L72.4865 151.097L77.5135 159.742L152.513 116.128L147.487 107.483ZM137.797 32.9619L145.021 112.259L154.979 111.352L147.756 32.0547L137.797 32.9619ZM72.8692 5.10387L140.645 37.0315L144.907 27.985L77.1308 -3.94262L72.8692 5.10387Z" fill="#DEDFE7" mask="url(#path-1-inside-1_195_2429)"/>
<defs>
<linearGradient id="paint0_linear_195_2429" x1="75" y1="0.580627" x2="75" y2="155.419" gradientUnits="userSpaceOnUse">
<stop offset="0.11319" stop-color="#1D2A52"/>
<stop offset="0.455955" stop-color="#1288EB"/>
<stop offset="0.868343" stop-color="#1D2A52"/>
</linearGradient>
<linearGradient id="paint1_linear_195_2429" x1="7.86119" y1="78" x2="142.882" y2="78" gradientUnits="userSpaceOnUse">
<stop stop-color="#1D2A52"/>
<stop offset="0.25" stop-color="#1D2A52" stop-opacity="0.35"/>
<stop offset="0.520833" stop-color="#1D2A52" stop-opacity="0"/>
<stop offset="0.807292" stop-color="#1D2A52" stop-opacity="0.35"/>
<stop offset="1" stop-color="#1D2A52"/>
</linearGradient>
<linearGradient id="paint2_linear_195_2429" x1="75" y1="0.580627" x2="75" y2="155.419" gradientUnits="userSpaceOnUse">
<stop offset="0.11319" stop-color="#1D2A52"/>
<stop offset="0.455955" stop-color="#1288EB"/>
<stop offset="0.868343" stop-color="#1D2A52"/>
</linearGradient>
<linearGradient id="paint3_linear_195_2429" x1="7.86119" y1="78" x2="142.882" y2="78" gradientUnits="userSpaceOnUse">
<stop stop-color="#1D2A52"/>
<stop offset="0.25" stop-color="#1D2A52" stop-opacity="0.35"/>
<stop offset="0.520833" stop-color="#1D2A52" stop-opacity="0"/>
<stop offset="0.807292" stop-color="#1D2A52" stop-opacity="0.35"/>
<stop offset="1" stop-color="#1D2A52"/>
</linearGradient>
<linearGradient id="paint4_linear_195_2429" x1="75" y1="0.580627" x2="75" y2="155.419" gradientUnits="userSpaceOnUse">
<stop offset="0.11319" stop-color="#1D2A52"/>
<stop offset="0.455955" stop-color="#1288EB"/>
<stop offset="0.868343" stop-color="#1D2A52"/>
</linearGradient>
<linearGradient id="paint5_linear_195_2429" x1="7.86119" y1="78" x2="142.882" y2="78" gradientUnits="userSpaceOnUse">
<stop stop-color="#1D2A52"/>
<stop offset="0.25" stop-color="#1D2A52" stop-opacity="0.35"/>
<stop offset="0.520833" stop-color="#1D2A52" stop-opacity="0"/>
<stop offset="0.807292" stop-color="#1D2A52" stop-opacity="0.35"/>
<stop offset="1" stop-color="#1D2A52"/>
</linearGradient>
<linearGradient id="paint6_linear_195_2429" x1="75" y1="0.580627" x2="75" y2="155.419" gradientUnits="userSpaceOnUse">
<stop offset="0.11319" stop-color="#1D2A52"/>
<stop offset="0.455955" stop-color="#1288EB"/>
<stop offset="0.868343" stop-color="#1D2A52"/>
</linearGradient>
<linearGradient id="paint7_linear_195_2429" x1="7.86119" y1="78" x2="142.882" y2="78" gradientUnits="userSpaceOnUse">
<stop stop-color="#1D2A52"/>
<stop offset="0.25" stop-color="#1D2A52" stop-opacity="0.35"/>
<stop offset="0.520833" stop-color="#1D2A52" stop-opacity="0"/>
<stop offset="0.807292" stop-color="#1D2A52" stop-opacity="0.35"/>
<stop offset="1" stop-color="#1D2A52"/>
</linearGradient>
<linearGradient id="paint8_linear_195_2429" x1="75" y1="0.580627" x2="75" y2="155.419" gradientUnits="userSpaceOnUse">
<stop offset="0.11319" stop-color="#1D2A52"/>
<stop offset="0.455955" stop-color="#1288EB"/>
<stop offset="0.868343" stop-color="#1D2A52"/>
</linearGradient>
<linearGradient id="paint9_linear_195_2429" x1="7.86119" y1="78" x2="142.882" y2="78" gradientUnits="userSpaceOnUse">
<stop stop-color="#1D2A52"/>
<stop offset="0.25" stop-color="#1D2A52" stop-opacity="0.35"/>
<stop offset="0.520833" stop-color="#1D2A52" stop-opacity="0"/>
<stop offset="0.807292" stop-color="#1D2A52" stop-opacity="0.35"/>
<stop offset="1" stop-color="#1D2A52"/>
</linearGradient>
<linearGradient id="paint10_linear_195_2429" x1="75" y1="0.580627" x2="75" y2="155.419" gradientUnits="userSpaceOnUse">
<stop offset="0.11319" stop-color="#1D2A52"/>
<stop offset="0.455955" stop-color="#1288EB"/>
<stop offset="0.868343" stop-color="#1D2A52"/>
</linearGradient>
<linearGradient id="paint11_linear_195_2429" x1="7.86119" y1="78" x2="142.882" y2="78" gradientUnits="userSpaceOnUse">
<stop stop-color="#1D2A52"/>
<stop offset="0.25" stop-color="#1D2A52" stop-opacity="0.35"/>
<stop offset="0.520833" stop-color="#1D2A52" stop-opacity="0"/>
<stop offset="0.807292" stop-color="#1D2A52" stop-opacity="0.35"/>
<stop offset="1" stop-color="#1D2A52"/>
</linearGradient>
<linearGradient id="paint12_linear_195_2429" x1="75" y1="0.580627" x2="75" y2="155.419" gradientUnits="userSpaceOnUse">
<stop offset="0.11319" stop-color="#1D2A52"/>
<stop offset="0.455955" stop-color="#1288EB"/>
<stop offset="0.868343" stop-color="#1D2A52"/>
</linearGradient>
<linearGradient id="paint13_linear_195_2429" x1="7.86119" y1="78" x2="142.882" y2="78" gradientUnits="userSpaceOnUse">
<stop stop-color="#1D2A52"/>
<stop offset="0.25" stop-color="#1D2A52" stop-opacity="0.35"/>
<stop offset="0.520833" stop-color="#1D2A52" stop-opacity="0"/>
<stop offset="0.807292" stop-color="#1D2A52" stop-opacity="0.35"/>
<stop offset="1" stop-color="#1D2A52"/>
</linearGradient>
<linearGradient id="paint14_linear_195_2429" x1="75" y1="0.580627" x2="75" y2="155.419" gradientUnits="userSpaceOnUse">
<stop offset="0.11319" stop-color="#1D2A52"/>
<stop offset="0.455955" stop-color="#1288EB"/>
<stop offset="0.868343" stop-color="#1D2A52"/>
</linearGradient>
<linearGradient id="paint15_linear_195_2429" x1="7.86119" y1="78" x2="142.882" y2="78" gradientUnits="userSpaceOnUse">
<stop stop-color="#1D2A52"/>
<stop offset="0.25" stop-color="#1D2A52" stop-opacity="0.35"/>
<stop offset="0.520833" stop-color="#1D2A52" stop-opacity="0"/>
<stop offset="0.807292" stop-color="#1D2A52" stop-opacity="0.35"/>
<stop offset="1" stop-color="#1D2A52"/>
</linearGradient>
<linearGradient id="paint16_linear_195_2429" x1="75" y1="0.580627" x2="75" y2="155.419" gradientUnits="userSpaceOnUse">
<stop offset="0.11319" stop-color="#1D2A52"/>
<stop offset="0.455955" stop-color="#1288EB"/>
<stop offset="0.868343" stop-color="#1D2A52"/>
</linearGradient>
<linearGradient id="paint17_linear_195_2429" x1="7.86119" y1="78" x2="142.882" y2="78" gradientUnits="userSpaceOnUse">
<stop stop-color="#1D2A52"/>
<stop offset="0.25" stop-color="#1D2A52" stop-opacity="0.35"/>
<stop offset="0.520833" stop-color="#1D2A52" stop-opacity="0"/>
<stop offset="0.807292" stop-color="#1D2A52" stop-opacity="0.35"/>
<stop offset="1" stop-color="#1D2A52"/>
</linearGradient>
<linearGradient id="paint18_linear_195_2429" x1="75" y1="0.580627" x2="75" y2="155.419" gradientUnits="userSpaceOnUse">
<stop offset="0.11319" stop-color="#1D2A52"/>
<stop offset="0.455955" stop-color="#1288EB"/>
<stop offset="0.868343" stop-color="#1D2A52"/>
</linearGradient>
<linearGradient id="paint19_linear_195_2429" x1="7.86119" y1="78" x2="142.882" y2="78" gradientUnits="userSpaceOnUse">
<stop stop-color="#1D2A52"/>
<stop offset="0.25" stop-color="#1D2A52" stop-opacity="0.35"/>
<stop offset="0.520833" stop-color="#1D2A52" stop-opacity="0"/>
<stop offset="0.807292" stop-color="#1D2A52" stop-opacity="0.35"/>
<stop offset="1" stop-color="#1D2A52"/>
</linearGradient>
<linearGradient id="paint20_linear_195_2429" x1="75" y1="0.580627" x2="75" y2="155.419" gradientUnits="userSpaceOnUse">
<stop offset="0.11319" stop-color="#1D2A52"/>
<stop offset="0.455955" stop-color="#1288EB"/>
<stop offset="0.868343" stop-color="#1D2A52"/>
</linearGradient>
<linearGradient id="paint21_linear_195_2429" x1="7.86119" y1="78" x2="142.882" y2="78" gradientUnits="userSpaceOnUse">
<stop stop-color="#1D2A52"/>
<stop offset="0.25" stop-color="#1D2A52" stop-opacity="0.35"/>
<stop offset="0.520833" stop-color="#1D2A52" stop-opacity="0"/>
<stop offset="0.807292" stop-color="#1D2A52" stop-opacity="0.35"/>
<stop offset="1" stop-color="#1D2A52"/>
</linearGradient>
<linearGradient id="paint22_linear_195_2429" x1="75" y1="0.580627" x2="75" y2="155.419" gradientUnits="userSpaceOnUse">
<stop offset="0.11319" stop-color="#1D2A52"/>
<stop offset="0.455955" stop-color="#1288EB"/>
<stop offset="0.868343" stop-color="#1D2A52"/>
</linearGradient>
<linearGradient id="paint23_linear_195_2429" x1="7.86119" y1="78" x2="142.882" y2="78" gradientUnits="userSpaceOnUse">
<stop stop-color="#1D2A52"/>
<stop offset="0.25" stop-color="#1D2A52" stop-opacity="0.35"/>
<stop offset="0.520833" stop-color="#1D2A52" stop-opacity="0"/>
<stop offset="0.807292" stop-color="#1D2A52" stop-opacity="0.35"/>
<stop offset="1" stop-color="#1D2A52"/>
</linearGradient>
<linearGradient id="paint24_linear_195_2429" x1="75" y1="0.580627" x2="75" y2="155.419" gradientUnits="userSpaceOnUse">
<stop offset="0.11319" stop-color="#1D2A52"/>
<stop offset="0.455955" stop-color="#1288EB"/>
<stop offset="0.868343" stop-color="#1D2A52"/>
</linearGradient>
<linearGradient id="paint25_linear_195_2429" x1="7.86119" y1="78" x2="142.882" y2="78" gradientUnits="userSpaceOnUse">
<stop stop-color="#1D2A52"/>
<stop offset="0.25" stop-color="#1D2A52" stop-opacity="0.35"/>
<stop offset="0.520833" stop-color="#1D2A52" stop-opacity="0"/>
<stop offset="0.807292" stop-color="#1D2A52" stop-opacity="0.35"/>
<stop offset="1" stop-color="#1D2A52"/>
</linearGradient>
<linearGradient id="paint26_linear_195_2429" x1="75" y1="0.580627" x2="75" y2="155.419" gradientUnits="userSpaceOnUse">
<stop offset="0.11319" stop-color="#1D2A52"/>
<stop offset="0.455955" stop-color="#1288EB"/>
<stop offset="0.868343" stop-color="#1D2A52"/>
</linearGradient>
<linearGradient id="paint27_linear_195_2429" x1="7.86119" y1="78" x2="142.882" y2="78" gradientUnits="userSpaceOnUse">
<stop stop-color="#1D2A52"/>
<stop offset="0.25" stop-color="#1D2A52" stop-opacity="0.35"/>
<stop offset="0.520833" stop-color="#1D2A52" stop-opacity="0"/>
<stop offset="0.807292" stop-color="#1D2A52" stop-opacity="0.35"/>
<stop offset="1" stop-color="#1D2A52"/>
</linearGradient>
<linearGradient id="paint28_linear_195_2429" x1="75" y1="0.580627" x2="75" y2="155.419" gradientUnits="userSpaceOnUse">
<stop offset="0.11319" stop-color="#1D2A52"/>
<stop offset="0.455955" stop-color="#1288EB"/>
<stop offset="0.868343" stop-color="#1D2A52"/>
</linearGradient>
<linearGradient id="paint29_linear_195_2429" x1="7.86119" y1="78" x2="142.882" y2="78" gradientUnits="userSpaceOnUse">
<stop stop-color="#1D2A52"/>
<stop offset="0.25" stop-color="#1D2A52" stop-opacity="0.35"/>
<stop offset="0.520833" stop-color="#1D2A52" stop-opacity="0"/>
<stop offset="0.807292" stop-color="#1D2A52" stop-opacity="0.35"/>
<stop offset="1" stop-color="#1D2A52"/>
</linearGradient>
<linearGradient id="paint30_linear_195_2429" x1="75" y1="0.580627" x2="75" y2="155.419" gradientUnits="userSpaceOnUse">
<stop offset="0.11319" stop-color="#1D2A52"/>
<stop offset="0.455955" stop-color="#1288EB"/>
<stop offset="0.868343" stop-color="#1D2A52"/>
</linearGradient>
<linearGradient id="paint31_linear_195_2429" x1="7.86119" y1="78" x2="142.882" y2="78" gradientUnits="userSpaceOnUse">
<stop stop-color="#1D2A52"/>
<stop offset="0.25" stop-color="#1D2A52" stop-opacity="0.35"/>
<stop offset="0.520833" stop-color="#1D2A52" stop-opacity="0"/>
<stop offset="0.807292" stop-color="#1D2A52" stop-opacity="0.35"/>
<stop offset="1" stop-color="#1D2A52"/>
</linearGradient>
<linearGradient id="paint32_linear_195_2429" x1="75" y1="0.580627" x2="75" y2="155.419" gradientUnits="userSpaceOnUse">
<stop offset="0.11319" stop-color="#1D2A52"/>
<stop offset="0.455955" stop-color="#1288EB"/>
<stop offset="0.868343" stop-color="#1D2A52"/>
</linearGradient>
<linearGradient id="paint33_linear_195_2429" x1="7.86119" y1="78" x2="142.882" y2="78" gradientUnits="userSpaceOnUse">
<stop stop-color="#1D2A52"/>
<stop offset="0.25" stop-color="#1D2A52" stop-opacity="0.35"/>
<stop offset="0.520833" stop-color="#1D2A52" stop-opacity="0"/>
<stop offset="0.807292" stop-color="#1D2A52" stop-opacity="0.35"/>
<stop offset="1" stop-color="#1D2A52"/>
</linearGradient>
</defs>
</svg>
