<svg width="42" height="42" viewBox="0 0 42 42" fill="none" xmlns="http://www.w3.org/2000/svg">
<path d="M37.3944 3.32007L23.1846 13.8739L25.8123 7.64728L37.3944 3.32007Z" fill="#E2761B" stroke="#E2761B" stroke-width="0.081607" stroke-linecap="round" stroke-linejoin="round"/>
<path d="M4.59082 3.31946L18.6864 13.9733L16.1872 7.64667L4.59082 3.31946Z" fill="#E4761B" stroke="#E4761B" stroke-width="0.081607" stroke-linecap="round" stroke-linejoin="round"/>
<path d="M32.2826 27.7834L28.498 33.5816L36.5955 35.8094L38.9233 27.9119L32.2826 27.7834Z" fill="#E4761B" stroke="#E4761B" stroke-width="0.081607" stroke-linecap="round" stroke-linejoin="round"/>
<path d="M3.09106 27.9119L5.40462 35.8094L13.5021 33.5816L9.71756 27.7834L3.09106 27.9119Z" fill="#E4761B" stroke="#E4761B" stroke-width="0.081607" stroke-linecap="round" stroke-linejoin="round"/>
<path d="M13.0457 17.9865L10.7893 21.3998L18.8296 21.7568L18.544 13.1166L13.0457 17.9865Z" fill="#E4761B" stroke="#E4761B" stroke-width="0.081607" stroke-linecap="round" stroke-linejoin="round"/>
<path d="M28.9397 17.9865L23.37 13.0167L23.1843 21.7568L31.2104 21.3997L28.9397 17.9865Z" fill="#E4761B" stroke="#E4761B" stroke-width="0.081607" stroke-linecap="round" stroke-linejoin="round"/>
<path d="M13.5015 33.5815L18.3285 31.2251L14.1584 27.969L13.5015 33.5815Z" fill="#E4761B" stroke="#E4761B" stroke-width="0.081607" stroke-linecap="round" stroke-linejoin="round"/>
<path d="M23.6565 31.2251L28.4978 33.5815L27.8266 27.969L23.6565 31.2251Z" fill="#E4761B" stroke="#E4761B" stroke-width="0.081607" stroke-linecap="round" stroke-linejoin="round"/>
<path d="M28.4991 33.5817L23.6577 31.2253L24.0433 34.3814L24.0005 35.7096L28.4991 33.5817Z" fill="#D7C1B3" stroke="#D7C1B3" stroke-width="0.081607" stroke-linecap="round" stroke-linejoin="round"/>
<path d="M13.502 33.5822L18.0005 35.7101L17.972 34.382L18.329 31.2258L13.502 33.5822Z" fill="#D7C1B3" stroke="#D7C1B3" stroke-width="0.081607" stroke-linecap="round" stroke-linejoin="round"/>
<path d="M18.0715 25.8843L14.0442 24.699L16.8862 23.3994L18.0715 25.8843Z" fill="#233447" stroke="#233447" stroke-width="0.081607" stroke-linecap="round" stroke-linejoin="round"/>
<path d="M23.9141 25.8843L25.0994 23.3994L27.9557 24.699L23.9141 25.8843Z" fill="#233447" stroke="#233447" stroke-width="0.081607" stroke-linecap="round" stroke-linejoin="round"/>
<path d="M13.5023 33.5817L14.1878 27.7835L9.71777 27.912L13.5023 33.5817Z" fill="#CD6116" stroke="#CD6116" stroke-width="0.081607" stroke-linecap="round" stroke-linejoin="round"/>
<path d="M27.8115 27.7835L28.497 33.5817L32.2815 27.912L27.8115 27.7835Z" fill="#CD6116" stroke="#CD6116" stroke-width="0.081607" stroke-linecap="round" stroke-linejoin="round"/>
<path d="M31.2109 21.3999L23.1848 21.7569L23.9274 25.8842L25.1128 23.3993L27.969 24.6989L31.2109 21.3999Z" fill="#CD6116" stroke="#CD6116" stroke-width="0.081607" stroke-linecap="round" stroke-linejoin="round"/>
<path d="M14.0459 24.6989L16.9022 23.3993L18.0732 25.8842L18.8301 21.7569L10.7898 21.3999L14.0459 24.6989Z" fill="#CD6116" stroke="#CD6116" stroke-width="0.081607" stroke-linecap="round" stroke-linejoin="round"/>
<path d="M10.7896 21.3999L14.1599 27.9693L14.0457 24.6989L10.7896 21.3999Z" fill="#E4751F" stroke="#E4751F" stroke-width="0.081607" stroke-linecap="round" stroke-linejoin="round"/>
<path d="M27.9697 24.6989L27.8269 27.9693L31.2116 21.3999L27.9697 24.6989Z" fill="#E4751F" stroke="#E4751F" stroke-width="0.081607" stroke-linecap="round" stroke-linejoin="round"/>
<path d="M18.8306 21.7568L18.0737 25.8841L19.0163 30.754L19.2305 24.3417L18.8306 21.7568Z" fill="#E4751F" stroke="#E4751F" stroke-width="0.081607" stroke-linecap="round" stroke-linejoin="round"/>
<path d="M23.1859 21.7568L22.8003 24.3274L22.9717 30.754L23.9285 25.8841L23.1859 21.7568Z" fill="#E4751F" stroke="#E4751F" stroke-width="0.081607" stroke-linecap="round" stroke-linejoin="round"/>
<path d="M23.9268 25.884L22.97 30.7538L23.6555 31.2251L27.8256 27.969L27.9684 24.6986L23.9268 25.884Z" fill="#F6851B" stroke="#F6851B" stroke-width="0.081607" stroke-linecap="round" stroke-linejoin="round"/>
<path d="M14.0442 24.6986L14.1584 27.969L18.3286 31.2251L19.0141 30.7538L18.0715 25.884L14.0442 24.6986Z" fill="#F6851B" stroke="#F6851B" stroke-width="0.081607" stroke-linecap="round" stroke-linejoin="round"/>
<path d="M23.9987 35.7096L24.0415 34.3814L23.6845 34.0672H18.3004L17.972 34.3814L18.0005 35.7096L13.502 33.5817L15.0729 34.867L18.2576 37.0806H23.7273L26.9263 34.867L28.4972 33.5817L23.9987 35.7096Z" fill="#C0AD9E" stroke="#C0AD9E" stroke-width="0.081607" stroke-linecap="round" stroke-linejoin="round"/>
<path d="M23.6568 31.2254L22.9713 30.7541H19.0154L18.3299 31.2254L17.9729 34.3815L18.3014 34.0673H23.6854L24.0424 34.3815L23.6568 31.2254Z" fill="#161616" stroke="#161616" stroke-width="0.081607" stroke-linecap="round" stroke-linejoin="round"/>
<path d="M37.9958 14.5588L39.2097 8.73204L37.396 3.31946L23.6575 13.5163L28.9415 17.9863L36.4106 20.1713L38.0672 18.2433L37.3532 17.7292L38.4957 16.6867L37.6102 16.0012L38.7527 15.13L37.9958 14.5588Z" fill="#763D16" stroke="#763D16" stroke-width="0.081607" stroke-linecap="round" stroke-linejoin="round"/>
<path d="M2.7915 8.73339L4.00541 14.5601L3.23422 15.1314L4.37672 16.0025L3.50557 16.688L4.64806 17.7306L3.934 18.2447L5.57634 20.1727L13.0454 17.9876L18.3295 13.5176L4.59094 3.3208L2.7915 8.73339Z" fill="#763D16" stroke="#763D16" stroke-width="0.081607" stroke-linecap="round" stroke-linejoin="round"/>
<path d="M36.4092 20.1718L28.9401 17.9868L31.2108 21.4L27.8262 27.9694L32.2819 27.9123H38.9227L36.4092 20.1718Z" fill="#F6851B" stroke="#F6851B" stroke-width="0.081607" stroke-linecap="round" stroke-linejoin="round"/>
<path d="M13.0453 17.9868L5.57624 20.1718L3.09131 27.9123H9.7178L14.1593 27.9694L10.7889 21.4L13.0453 17.9868Z" fill="#F6851B" stroke="#F6851B" stroke-width="0.081607" stroke-linecap="round" stroke-linejoin="round"/>
<path d="M23.1841 21.7571L23.6554 13.5168L25.8261 7.64722H16.1863L18.3285 13.5168L18.8283 21.7571L18.9997 24.3563L19.014 30.7542H22.9699L22.9984 24.3563L23.1841 21.7571Z" fill="#F6851B" stroke="#F6851B" stroke-width="0.081607" stroke-linecap="round" stroke-linejoin="round"/>
</svg>
