<svg width="292" height="373" viewBox="0 0 292 373" fill="none" xmlns="http://www.w3.org/2000/svg">
<g filter="url(#filter0_f_789_3273)">
<path d="M284.741 325.098C285.383 324.471 284.939 323.381 284.041 323.381H207.235V371.763L284.042 371.755C284.94 371.755 285.384 370.665 284.741 370.038L266.132 351.866C263.718 349.509 263.718 345.627 266.132 343.27L284.741 325.098Z" fill="url(#paint0_linear_789_3273)"/>
</g>
<g filter="url(#filter1_f_789_3273)">
<path d="M207.237 371.765L244.295 363.521H207.237V371.765Z" fill="url(#paint1_linear_789_3273)"/>
</g>
<g filter="url(#filter2_f_789_3273)">
<path d="M8.25904 325.098C7.61669 324.471 8.06077 323.381 8.95855 323.381H85.7647V371.763L8.95817 371.755C8.06044 371.755 7.61647 370.665 8.25878 370.038L26.8683 351.866C29.2823 349.509 29.2823 345.627 26.8683 343.27L8.25904 325.098Z" fill="url(#paint2_linear_789_3273)"/>
</g>
<g filter="url(#filter3_f_789_3273)">
<path d="M85.7634 371.765L48.7046 363.521H85.7634V371.765Z" fill="url(#paint3_linear_789_3273)"/>
</g>
<g filter="url(#filter4_f_789_3273)">
<path d="M48.7046 314.004C48.7046 311.792 50.4977 309.999 52.7096 309.999H240.288C242.5 309.999 244.293 311.792 244.293 314.004V363.528H48.7046V314.004Z" fill="url(#paint4_linear_789_3273)"/>
</g>
<path d="M100.089 321.269C101.949 321.269 103.377 321.599 104.373 322.259C105.369 322.907 105.867 323.975 105.867 325.463C105.867 326.963 105.363 328.049 104.355 328.721C103.347 329.381 101.907 329.711 100.035 329.711H99.1528V333.887H96.3448V321.593C96.9568 321.473 97.6048 321.389 98.2888 321.341C98.9728 321.293 99.5728 321.269 100.089 321.269ZM100.269 323.663C100.065 323.663 99.8608 323.669 99.6568 323.681C99.4648 323.693 99.2968 323.705 99.1528 323.717V327.317H100.035C101.007 327.317 101.739 327.185 102.231 326.921C102.723 326.657 102.969 326.165 102.969 325.445C102.969 325.097 102.903 324.809 102.771 324.581C102.651 324.353 102.471 324.173 102.231 324.041C102.003 323.897 101.721 323.801 101.385 323.753C101.049 323.693 100.677 323.663 100.269 323.663ZM116.341 329.135C116.341 329.879 116.233 330.563 116.017 331.187C115.801 331.799 115.489 332.327 115.081 332.771C114.673 333.203 114.181 333.539 113.605 333.779C113.041 334.019 112.405 334.139 111.697 334.139C111.001 334.139 110.365 334.019 109.789 333.779C109.225 333.539 108.739 333.203 108.331 332.771C107.923 332.327 107.605 331.799 107.377 331.187C107.149 330.563 107.035 329.879 107.035 329.135C107.035 328.391 107.149 327.713 107.377 327.101C107.617 326.489 107.941 325.967 108.349 325.535C108.769 325.103 109.261 324.767 109.825 324.527C110.401 324.287 111.025 324.167 111.697 324.167C112.381 324.167 113.005 324.287 113.569 324.527C114.145 324.767 114.637 325.103 115.045 325.535C115.453 325.967 115.771 326.489 115.999 327.101C116.227 327.713 116.341 328.391 116.341 329.135ZM113.605 329.135C113.605 328.307 113.437 327.659 113.101 327.191C112.777 326.711 112.309 326.471 111.697 326.471C111.085 326.471 110.611 326.711 110.275 327.191C109.939 327.659 109.771 328.307 109.771 329.135C109.771 329.963 109.939 330.623 110.275 331.115C110.611 331.595 111.085 331.835 111.697 331.835C112.309 331.835 112.777 331.595 113.101 331.115C113.437 330.623 113.605 329.963 113.605 329.135ZM123.968 328.451C123.728 329.363 123.47 330.269 123.194 331.169C122.93 332.069 122.648 332.975 122.348 333.887H120.26C120.044 333.383 119.81 332.783 119.558 332.087C119.306 331.391 119.042 330.635 118.766 329.819C118.502 328.991 118.226 328.121 117.938 327.209C117.662 326.285 117.392 325.355 117.128 324.419H119.954C120.05 324.851 120.152 325.325 120.26 325.841C120.38 326.345 120.5 326.867 120.62 327.407C120.752 327.947 120.884 328.493 121.016 329.045C121.16 329.585 121.304 330.107 121.448 330.611C121.604 330.083 121.754 329.543 121.898 328.991C122.054 328.439 122.198 327.899 122.33 327.371C122.474 326.831 122.606 326.315 122.726 325.823C122.858 325.319 122.972 324.851 123.068 324.419H125.012C125.108 324.851 125.216 325.319 125.336 325.823C125.456 326.315 125.582 326.831 125.714 327.371C125.846 327.899 125.984 328.439 126.128 328.991C126.272 329.543 126.422 330.083 126.578 330.611C126.722 330.107 126.866 329.585 127.01 329.045C127.154 328.493 127.286 327.947 127.406 327.407C127.538 326.867 127.658 326.345 127.766 325.841C127.886 325.325 127.994 324.851 128.09 324.419H130.88C130.616 325.355 130.34 326.285 130.052 327.209C129.776 328.121 129.5 328.991 129.224 329.819C128.96 330.635 128.696 331.391 128.432 332.087C128.18 332.783 127.946 333.383 127.73 333.887H125.642C125.342 332.975 125.048 332.069 124.76 331.169C124.472 330.269 124.208 329.363 123.968 328.451ZM131.662 329.225C131.662 328.385 131.788 327.653 132.04 327.029C132.304 326.393 132.646 325.865 133.066 325.445C133.486 325.025 133.966 324.707 134.506 324.491C135.058 324.275 135.622 324.167 136.198 324.167C137.542 324.167 138.604 324.581 139.384 325.409C140.164 326.225 140.554 327.431 140.554 329.027C140.554 329.183 140.548 329.357 140.536 329.549C140.524 329.729 140.512 329.891 140.5 330.035H134.416C134.476 330.587 134.734 331.025 135.19 331.349C135.646 331.673 136.258 331.835 137.026 331.835C137.518 331.835 137.998 331.793 138.466 331.709C138.946 331.613 139.336 331.499 139.636 331.367L139.996 333.545C139.852 333.617 139.66 333.689 139.42 333.761C139.18 333.833 138.91 333.893 138.61 333.941C138.322 334.001 138.01 334.049 137.674 334.085C137.338 334.121 137.002 334.139 136.666 334.139C135.814 334.139 135.07 334.013 134.434 333.761C133.81 333.509 133.288 333.167 132.868 332.735C132.46 332.291 132.154 331.769 131.95 331.169C131.758 330.569 131.662 329.921 131.662 329.225ZM137.962 328.199C137.95 327.971 137.908 327.749 137.836 327.533C137.776 327.317 137.674 327.125 137.53 326.957C137.398 326.789 137.224 326.651 137.008 326.543C136.804 326.435 136.546 326.381 136.234 326.381C135.934 326.381 135.676 326.435 135.46 326.543C135.244 326.639 135.064 326.771 134.92 326.939C134.776 327.107 134.662 327.305 134.578 327.533C134.506 327.749 134.452 327.971 134.416 328.199H137.962ZM148.33 326.795C148.09 326.735 147.808 326.675 147.484 326.615C147.16 326.543 146.812 326.507 146.44 326.507C146.272 326.507 146.068 326.525 145.828 326.561C145.6 326.585 145.426 326.615 145.306 326.651V333.887H142.624V324.923C143.104 324.755 143.668 324.599 144.316 324.455C144.976 324.299 145.708 324.221 146.512 324.221C146.656 324.221 146.83 324.233 147.034 324.257C147.238 324.269 147.442 324.293 147.646 324.329C147.85 324.353 148.054 324.389 148.258 324.437C148.462 324.473 148.636 324.521 148.78 324.581L148.33 326.795ZM163.092 333.887C162.288 332.459 161.418 331.049 160.482 329.657C159.546 328.265 158.55 326.951 157.494 325.715V333.887H154.722V321.413H157.008C157.404 321.809 157.842 322.295 158.322 322.871C158.802 323.447 159.288 324.065 159.78 324.725C160.284 325.373 160.782 326.051 161.274 326.759C161.766 327.455 162.228 328.127 162.66 328.775V321.413H165.45V333.887H163.092ZM177.003 329.135C177.003 329.879 176.895 330.563 176.679 331.187C176.463 331.799 176.151 332.327 175.743 332.771C175.335 333.203 174.843 333.539 174.267 333.779C173.703 334.019 173.067 334.139 172.359 334.139C171.663 334.139 171.027 334.019 170.451 333.779C169.887 333.539 169.401 333.203 168.993 332.771C168.585 332.327 168.267 331.799 168.039 331.187C167.811 330.563 167.697 329.879 167.697 329.135C167.697 328.391 167.811 327.713 168.039 327.101C168.279 326.489 168.603 325.967 169.011 325.535C169.431 325.103 169.923 324.767 170.487 324.527C171.063 324.287 171.687 324.167 172.359 324.167C173.043 324.167 173.667 324.287 174.231 324.527C174.807 324.767 175.299 325.103 175.707 325.535C176.115 325.967 176.433 326.489 176.661 327.101C176.889 327.713 177.003 328.391 177.003 329.135ZM174.267 329.135C174.267 328.307 174.099 327.659 173.763 327.191C173.439 326.711 172.971 326.471 172.359 326.471C171.747 326.471 171.273 326.711 170.937 327.191C170.601 327.659 170.433 328.307 170.433 329.135C170.433 329.963 170.601 330.623 170.937 331.115C171.273 331.595 171.747 331.835 172.359 331.835C172.971 331.835 173.439 331.595 173.763 331.115C174.099 330.623 174.267 329.963 174.267 329.135ZM181.367 329.081C181.367 329.909 181.553 330.575 181.925 331.079C182.297 331.583 182.849 331.835 183.581 331.835C183.821 331.835 184.043 331.829 184.247 331.817C184.451 331.793 184.619 331.769 184.751 331.745V326.867C184.583 326.759 184.361 326.669 184.085 326.597C183.821 326.525 183.551 326.489 183.275 326.489C182.003 326.489 181.367 327.353 181.367 329.081ZM187.433 333.581C187.193 333.653 186.917 333.725 186.605 333.797C186.293 333.857 185.963 333.911 185.615 333.959C185.279 334.007 184.931 334.043 184.571 334.067C184.223 334.103 183.887 334.121 183.563 334.121C182.783 334.121 182.087 334.007 181.475 333.779C180.863 333.551 180.347 333.227 179.927 332.807C179.507 332.375 179.183 331.859 178.955 331.259C178.739 330.647 178.631 329.963 178.631 329.207C178.631 328.439 178.727 327.749 178.919 327.137C179.111 326.513 179.387 325.985 179.747 325.553C180.107 325.121 180.545 324.791 181.061 324.563C181.589 324.335 182.189 324.221 182.861 324.221C183.233 324.221 183.563 324.257 183.851 324.329C184.151 324.401 184.451 324.503 184.751 324.635V320.351L187.433 319.919V333.581ZM189.494 329.225C189.494 328.385 189.62 327.653 189.872 327.029C190.136 326.393 190.478 325.865 190.898 325.445C191.318 325.025 191.798 324.707 192.338 324.491C192.89 324.275 193.454 324.167 194.03 324.167C195.374 324.167 196.436 324.581 197.216 325.409C197.996 326.225 198.386 327.431 198.386 329.027C198.386 329.183 198.38 329.357 198.368 329.549C198.356 329.729 198.344 329.891 198.332 330.035H192.248C192.308 330.587 192.566 331.025 193.022 331.349C193.478 331.673 194.09 331.835 194.858 331.835C195.35 331.835 195.83 331.793 196.298 331.709C196.778 331.613 197.168 331.499 197.468 331.367L197.828 333.545C197.684 333.617 197.492 333.689 197.252 333.761C197.012 333.833 196.742 333.893 196.442 333.941C196.154 334.001 195.842 334.049 195.506 334.085C195.17 334.121 194.834 334.139 194.498 334.139C193.646 334.139 192.902 334.013 192.266 333.761C191.642 333.509 191.12 333.167 190.7 332.735C190.292 332.291 189.986 331.769 189.782 331.169C189.59 330.569 189.494 329.921 189.494 329.225ZM195.794 328.199C195.782 327.971 195.74 327.749 195.668 327.533C195.608 327.317 195.506 327.125 195.362 326.957C195.23 326.789 195.056 326.651 194.84 326.543C194.636 326.435 194.378 326.381 194.066 326.381C193.766 326.381 193.508 326.435 193.292 326.543C193.076 326.639 192.896 326.771 192.752 326.939C192.608 327.107 192.494 327.305 192.41 327.533C192.338 327.749 192.284 327.971 192.248 328.199H195.794ZM84.7722 348.641C84.7722 349.253 84.8442 349.805 84.9882 350.297C85.1442 350.789 85.3602 351.215 85.6362 351.575C85.9242 351.923 86.2722 352.193 86.6802 352.385C87.0882 352.577 87.5562 352.673 88.0842 352.673C88.6002 352.673 89.0622 352.577 89.4702 352.385C89.8902 352.193 90.2382 351.923 90.5142 351.575C90.8022 351.215 91.0182 350.789 91.1622 350.297C91.3182 349.805 91.3962 349.253 91.3962 348.641C91.3962 348.029 91.3182 347.477 91.1622 346.985C91.0182 346.481 90.8022 346.055 90.5142 345.707C90.2382 345.347 89.8902 345.071 89.4702 344.879C89.0622 344.687 88.6002 344.591 88.0842 344.591C87.5562 344.591 87.0882 344.693 86.6802 344.897C86.2722 345.089 85.9242 345.365 85.6362 345.725C85.3602 346.073 85.1442 346.499 84.9882 347.003C84.8442 347.495 84.7722 348.041 84.7722 348.641ZM94.2942 348.641C94.2942 349.709 94.1322 350.651 93.8082 351.467C93.4962 352.271 93.0642 352.949 92.5122 353.501C91.9602 354.041 91.3002 354.449 90.5322 354.725C89.7762 355.001 88.9602 355.139 88.0842 355.139C87.2322 355.139 86.4282 355.001 85.6722 354.725C84.9162 354.449 84.2562 354.041 83.6922 353.501C83.1282 352.949 82.6842 352.271 82.3602 351.467C82.0362 350.651 81.8742 349.709 81.8742 348.641C81.8742 347.573 82.0422 346.637 82.3782 345.833C82.7142 345.017 83.1642 344.333 83.7282 343.781C84.3042 343.229 84.9642 342.815 85.7082 342.539C86.4642 342.263 87.2562 342.125 88.0842 342.125C88.9362 342.125 89.7402 342.263 90.4962 342.539C91.2522 342.815 91.9122 343.229 92.4762 343.781C93.0402 344.333 93.4842 345.017 93.8082 345.833C94.1322 346.637 94.2942 347.573 94.2942 348.641ZM102.215 349.451C101.975 350.363 101.717 351.269 101.441 352.169C101.177 353.069 100.895 353.975 100.595 354.887H98.5069C98.2909 354.383 98.0569 353.783 97.8049 353.087C97.5529 352.391 97.2889 351.635 97.0129 350.819C96.7489 349.991 96.4729 349.121 96.1849 348.209C95.9089 347.285 95.6389 346.355 95.3749 345.419H98.2009C98.2969 345.851 98.3989 346.325 98.5069 346.841C98.6269 347.345 98.7469 347.867 98.8669 348.407C98.9989 348.947 99.1309 349.493 99.2629 350.045C99.4069 350.585 99.5509 351.107 99.6949 351.611C99.8509 351.083 100.001 350.543 100.145 349.991C100.301 349.439 100.445 348.899 100.577 348.371C100.721 347.831 100.853 347.315 100.973 346.823C101.105 346.319 101.219 345.851 101.315 345.419H103.259C103.355 345.851 103.463 346.319 103.583 346.823C103.703 347.315 103.829 347.831 103.961 348.371C104.093 348.899 104.231 349.439 104.375 349.991C104.519 350.543 104.669 351.083 104.825 351.611C104.969 351.107 105.113 350.585 105.257 350.045C105.401 349.493 105.533 348.947 105.653 348.407C105.785 347.867 105.905 347.345 106.013 346.841C106.133 346.325 106.241 345.851 106.337 345.419H109.127C108.863 346.355 108.587 347.285 108.299 348.209C108.023 349.121 107.747 349.991 107.471 350.819C107.207 351.635 106.943 352.391 106.679 353.087C106.427 353.783 106.193 354.383 105.977 354.887H103.889C103.589 353.975 103.295 353.069 103.007 352.169C102.719 351.269 102.455 350.363 102.215 349.451ZM110.57 345.743C111.026 345.611 111.614 345.491 112.334 345.383C113.054 345.263 113.81 345.203 114.602 345.203C115.406 345.203 116.072 345.311 116.6 345.527C117.14 345.731 117.566 346.025 117.878 346.409C118.19 346.793 118.412 347.249 118.544 347.777C118.676 348.305 118.742 348.893 118.742 349.541V354.887H116.06V349.865C116.06 349.001 115.946 348.389 115.718 348.029C115.49 347.669 115.064 347.489 114.44 347.489C114.248 347.489 114.044 347.501 113.828 347.525C113.612 347.537 113.42 347.555 113.252 347.579V354.887H110.57V345.743ZM120.72 350.225C120.72 349.385 120.846 348.653 121.098 348.029C121.362 347.393 121.704 346.865 122.124 346.445C122.544 346.025 123.024 345.707 123.564 345.491C124.116 345.275 124.68 345.167 125.256 345.167C126.6 345.167 127.662 345.581 128.442 346.409C129.222 347.225 129.612 348.431 129.612 350.027C129.612 350.183 129.606 350.357 129.594 350.549C129.582 350.729 129.57 350.891 129.558 351.035H123.474C123.534 351.587 123.792 352.025 124.248 352.349C124.704 352.673 125.316 352.835 126.084 352.835C126.576 352.835 127.056 352.793 127.524 352.709C128.004 352.613 128.394 352.499 128.694 352.367L129.054 354.545C128.91 354.617 128.718 354.689 128.478 354.761C128.238 354.833 127.968 354.893 127.668 354.941C127.38 355.001 127.068 355.049 126.732 355.085C126.396 355.121 126.06 355.139 125.724 355.139C124.872 355.139 124.128 355.013 123.492 354.761C122.868 354.509 122.346 354.167 121.926 353.735C121.518 353.291 121.212 352.769 121.008 352.169C120.816 351.569 120.72 350.921 120.72 350.225ZM127.02 349.199C127.008 348.971 126.966 348.749 126.894 348.533C126.834 348.317 126.732 348.125 126.588 347.957C126.456 347.789 126.282 347.651 126.066 347.543C125.862 347.435 125.604 347.381 125.292 347.381C124.992 347.381 124.734 347.435 124.518 347.543C124.302 347.639 124.122 347.771 123.978 347.939C123.834 348.107 123.72 348.305 123.636 348.533C123.564 348.749 123.51 348.971 123.474 349.199H127.02ZM137.387 347.795C137.147 347.735 136.865 347.675 136.541 347.615C136.217 347.543 135.869 347.507 135.497 347.507C135.329 347.507 135.125 347.525 134.885 347.561C134.657 347.585 134.483 347.615 134.363 347.651V354.887H131.681V345.923C132.161 345.755 132.725 345.599 133.373 345.455C134.033 345.299 134.765 345.221 135.569 345.221C135.713 345.221 135.887 345.233 136.091 345.257C136.295 345.269 136.499 345.293 136.703 345.329C136.907 345.353 137.111 345.389 137.315 345.437C137.519 345.473 137.693 345.521 137.837 345.581L137.387 347.795ZM141.993 352.961C142.485 352.961 142.833 352.913 143.037 352.817C143.241 352.721 143.343 352.535 143.343 352.259C143.343 352.043 143.211 351.857 142.947 351.701C142.683 351.533 142.281 351.347 141.741 351.143C141.321 350.987 140.937 350.825 140.589 350.657C140.253 350.489 139.965 350.291 139.725 350.063C139.485 349.823 139.299 349.541 139.167 349.217C139.035 348.893 138.969 348.503 138.969 348.047C138.969 347.159 139.299 346.457 139.959 345.941C140.619 345.425 141.525 345.167 142.677 345.167C143.253 345.167 143.805 345.221 144.333 345.329C144.861 345.425 145.281 345.533 145.593 345.653L145.125 347.741C144.813 347.633 144.471 347.537 144.099 347.453C143.739 347.369 143.331 347.327 142.875 347.327C142.035 347.327 141.615 347.561 141.615 348.029C141.615 348.137 141.633 348.233 141.669 348.317C141.705 348.401 141.777 348.485 141.885 348.569C141.993 348.641 142.137 348.725 142.317 348.821C142.509 348.905 142.749 349.001 143.037 349.109C143.625 349.325 144.111 349.541 144.495 349.757C144.879 349.961 145.179 350.189 145.395 350.441C145.623 350.681 145.779 350.951 145.863 351.251C145.959 351.551 146.007 351.899 146.007 352.295C146.007 353.231 145.653 353.939 144.945 354.419C144.249 354.899 143.259 355.139 141.975 355.139C141.135 355.139 140.433 355.067 139.869 354.923C139.317 354.779 138.933 354.659 138.717 354.563L139.167 352.385C139.623 352.565 140.091 352.709 140.571 352.817C141.051 352.913 141.525 352.961 141.993 352.961ZM148.012 354.887V341.351L150.694 340.919V345.455C150.874 345.395 151.102 345.341 151.378 345.293C151.666 345.233 151.942 345.203 152.206 345.203C152.974 345.203 153.61 345.311 154.114 345.527C154.63 345.731 155.038 346.025 155.338 346.409C155.65 346.793 155.866 347.249 155.986 347.777C156.118 348.305 156.184 348.893 156.184 349.541V354.887H153.502V349.865C153.502 349.001 153.388 348.389 153.16 348.029C152.944 347.669 152.536 347.489 151.936 347.489C151.696 347.489 151.468 347.513 151.252 347.561C151.048 347.597 150.862 347.639 150.694 347.687V354.887H148.012ZM161.293 354.887H158.611V345.419H161.293V354.887ZM161.545 342.683C161.545 343.175 161.383 343.565 161.059 343.853C160.747 344.129 160.375 344.267 159.943 344.267C159.511 344.267 159.133 344.129 158.809 343.853C158.497 343.565 158.341 343.175 158.341 342.683C158.341 342.191 158.497 341.807 158.809 341.531C159.133 341.243 159.511 341.099 159.943 341.099C160.375 341.099 160.747 341.243 161.059 341.531C161.383 341.807 161.545 342.191 161.545 342.683ZM169.88 350.225C169.88 349.397 169.694 348.737 169.322 348.245C168.95 347.741 168.398 347.489 167.666 347.489C167.426 347.489 167.204 347.501 167 347.525C166.796 347.537 166.628 347.555 166.496 347.579V352.421C166.664 352.529 166.88 352.619 167.144 352.691C167.42 352.763 167.696 352.799 167.972 352.799C169.244 352.799 169.88 351.941 169.88 350.225ZM172.616 350.153C172.616 350.885 172.526 351.551 172.346 352.151C172.166 352.751 171.902 353.267 171.554 353.699C171.206 354.131 170.774 354.467 170.258 354.707C169.742 354.947 169.148 355.067 168.476 355.067C168.104 355.067 167.756 355.031 167.432 354.959C167.108 354.887 166.796 354.785 166.496 354.653V358.217H163.814V345.743C164.054 345.671 164.33 345.605 164.642 345.545C164.954 345.473 165.278 345.413 165.614 345.365C165.962 345.317 166.31 345.281 166.658 345.257C167.018 345.221 167.36 345.203 167.684 345.203C168.464 345.203 169.16 345.323 169.772 345.563C170.384 345.791 170.9 346.121 171.32 346.553C171.74 346.973 172.058 347.489 172.274 348.101C172.502 348.713 172.616 349.397 172.616 350.153ZM187.552 354.887C186.748 353.459 185.878 352.049 184.942 350.657C184.006 349.265 183.01 347.951 181.954 346.715V354.887H179.182V342.413H181.468C181.864 342.809 182.302 343.295 182.782 343.871C183.262 344.447 183.748 345.065 184.24 345.725C184.744 346.373 185.242 347.051 185.734 347.759C186.226 348.455 186.688 349.127 187.12 349.775V342.413H189.91V354.887H187.552ZM192.787 354.887V342.413H201.139V344.771H195.595V347.381H200.527V349.739H195.595V354.887H192.787ZM212.762 342.413V344.807H209V354.887H206.192V344.807H202.43V342.413H212.762Z" fill="#E3EEF0"/>
<g filter="url(#filter5_d_789_3273)">
<path d="M138.331 42.5656L49.8168 90.168C44.306 93.1317 40.8687 98.883 40.8687 105.14L40.8687 213.757C40.8687 220.014 44.3059 225.765 49.8167 228.729L138.331 276.331C143.359 279.035 149.408 279.035 154.435 276.331L242.95 228.729C248.461 225.765 251.898 220.014 251.898 213.757L251.898 105.14C251.898 98.8831 248.461 93.1317 242.95 90.168L154.435 42.5656C149.408 39.8619 143.359 39.8619 138.331 42.5656Z" fill="url(#paint5_linear_789_3273)"/>
</g>
<path d="M137.841 61.0829L65.2183 100.161C59.7302 103.114 56.3074 108.842 56.3074 115.075L56.3074 204.337C56.3074 210.569 59.7302 216.298 65.2183 219.251L137.841 258.329C142.851 261.025 148.881 261.025 153.891 258.329L226.514 219.251C232.002 216.298 235.425 210.569 235.425 204.337L235.425 115.075C235.425 108.842 232.002 103.114 226.514 100.161L153.891 61.0829C148.881 58.3868 142.851 58.3868 137.841 61.0829Z" fill="url(#paint6_linear_789_3273)"/>
<g filter="url(#filter6_f_789_3273)">
<path d="M65.9713 100.601L138.594 61.5232C143.457 58.9067 149.308 58.9067 154.17 61.5232L226.793 100.601C232.119 103.467 235.441 109.026 235.441 115.075L235.441 204.337C235.441 210.385 232.119 215.945 226.793 218.81L154.17 257.888C149.308 260.505 143.457 260.505 138.594 257.888L65.9713 218.81C60.6452 215.945 57.3235 210.385 57.3235 204.337L57.3235 115.075C57.3235 109.026 60.6453 103.467 65.9713 100.601Z" stroke="url(#paint7_linear_789_3273)"/>
</g>
<g opacity="0.5">
<mask id="mask0_789_3273" style="mask-type:alpha" maskUnits="userSpaceOnUse" x="61" y="64" width="170" height="191">
<path d="M138.359 66.7458L70.8837 103.053C65.3954 106.006 61.9726 111.735 61.9726 117.967L61.9725 200.933C61.9725 207.165 65.3954 212.894 70.8836 215.847L138.359 252.154C143.37 254.85 149.399 254.85 154.409 252.154L221.885 215.847C227.373 212.894 230.796 207.165 230.796 200.933L230.796 117.967C230.796 111.735 227.373 106.006 221.885 103.053L154.409 66.7458C149.399 64.0498 143.37 64.0498 138.359 66.7458Z" fill="#A6D3DE"/>
</mask>
<g mask="url(#mask0_789_3273)">
<path d="M138.359 66.7458L70.8837 103.053C65.3954 106.006 61.9726 111.735 61.9726 117.967L61.9725 200.933C61.9725 207.165 65.3954 212.894 70.8836 215.847L138.359 252.154C143.37 254.85 149.399 254.85 154.409 252.154L221.885 215.847C227.373 212.894 230.796 207.165 230.796 200.933L230.796 117.967C230.796 111.735 227.373 106.006 221.885 103.053L154.409 66.7458C149.399 64.0498 143.37 64.0498 138.359 66.7458Z" fill="url(#paint8_radial_789_3273)"/>
<path opacity="0.5" d="M134.068 261.99L130.358 63.3477H161.896L158.186 261.99L134.068 261.99Z" fill="url(#paint9_linear_789_3273)"/>
<path opacity="0.5" d="M131.973 246.385L228.941 72.5166L256.254 88.1505L152.86 258.34L131.973 246.385Z" fill="url(#paint10_linear_789_3273)"/>
<path opacity="0.5" d="M139.395 258.34L36.0006 88.1504L63.3137 72.5165L160.281 246.385L139.395 258.34Z" fill="url(#paint11_linear_789_3273)"/>
<rect x="61.9701" y="137.399" width="168.823" height="149.943" fill="url(#paint12_linear_789_3273)"/>
<g filter="url(#filter7_i_789_3273)">
<path d="M138.359 66.7458L70.8837 103.053C65.3954 106.006 61.9726 111.735 61.9726 117.967L61.9725 200.933C61.9725 207.165 65.3954 212.893 70.8836 215.847L138.359 252.154C143.37 254.85 149.399 254.85 154.409 252.154L221.885 215.847C227.373 212.893 230.796 207.165 230.796 200.933L230.796 117.967C230.796 111.735 227.373 106.006 221.885 103.053L154.409 66.7458C149.399 64.0498 143.37 64.0498 138.359 66.7458Z" fill="#3868E5" fill-opacity="0.03"/>
</g>
</g>
</g>
<g filter="url(#filter8_d_789_3273)">
<path d="M85.8337 118.834L146.373 90.7354L206.912 118.834L213.285 189.721L146.373 228.676L79.4612 189.721L85.8337 118.834Z" fill="url(#paint13_linear_789_3273)"/>
</g>
<path opacity="0.92" d="M146.374 90.7354L206.913 118.834L167.403 141.825L146.374 111.81V90.7354Z" fill="url(#paint14_linear_789_3273)"/>
<path opacity="0.92" d="M146.374 90.7354L85.8345 118.834L125.344 141.825L146.374 111.81V90.7354Z" fill="url(#paint15_linear_789_3273)"/>
<path opacity="0.92" d="M85.8358 118.834L79.4633 189.72L103.042 177.587L125.346 141.824L85.8358 118.834Z" fill="url(#paint16_linear_789_3273)"/>
<path opacity="0.92" d="M206.914 118.834L213.287 189.72L189.708 177.587L167.405 141.824L206.914 118.834Z" fill="url(#paint17_linear_789_3273)"/>
<path opacity="0.92" d="M189.707 177.588L213.285 189.721L146.374 228.677V176.311L189.707 177.588Z" fill="url(#paint18_linear_789_3273)"/>
<path opacity="0.92" d="M103.04 177.588L79.4619 189.721L146.374 228.677V176.311L103.04 177.588Z" fill="url(#paint19_linear_789_3273)"/>
<path opacity="0.52" d="M85.8357 118.834L103.042 177.587L146.375 228.676L189.708 177.587L206.914 118.834L146.375 111.81L85.8357 118.834Z" fill="url(#paint20_linear_789_3273)"/>
<path opacity="0.6" d="M146.375 111.81L125.346 141.825L103.042 177.587L146.375 176.583L189.709 177.587L167.405 141.825L146.375 111.81Z" fill="url(#paint21_linear_789_3273)"/>
<path opacity="0.8" d="M103.041 177.588L125.345 141.825H167.405L146.375 176.311L103.041 177.588Z" fill="url(#paint22_linear_789_3273)"/>
<path opacity="0.8" d="M125.346 141.824L146.375 176.309L189.709 177.587L167.405 141.824H125.346Z" fill="url(#paint23_linear_789_3273)"/>
<path opacity="0.8" d="M146.376 111.81L125.346 141.825L146.375 176.31L167.405 141.825L146.376 111.81Z" fill="url(#paint24_linear_789_3273)"/>
<path d="M146.624 111.587V91.127L205.398 118.407L146.624 111.587Z" stroke="url(#paint25_linear_789_3273)" stroke-width="0.5"/>
<path d="M167.476 141.492L146.898 112.121L206.138 118.995L167.476 141.492Z" stroke="url(#paint26_linear_789_3273)" stroke-width="0.5"/>
<path d="M125.271 141.492L145.849 112.121L86.6094 118.995L125.271 141.492Z" stroke="url(#paint27_linear_789_3273)" stroke-width="0.5"/>
<path d="M166.924 141.574L146.375 112.244L125.826 141.574H166.924Z" stroke="url(#paint28_linear_789_3273)" stroke-width="0.5"/>
<path d="M166.959 142.075L146.375 175.83L125.791 142.075H166.959Z" stroke="url(#paint29_linear_789_3273)" stroke-width="0.5"/>
<path d="M145.936 176.072L125.342 142.3L103.499 177.323L145.936 176.072Z" stroke="url(#paint30_linear_789_3273)" stroke-width="0.5"/>
<path d="M146.811 176.072L167.405 142.3L189.248 177.323L146.811 176.072Z" stroke="url(#paint31_linear_789_3273)" stroke-width="0.5"/>
<path d="M167.753 141.911L206.498 119.365L189.625 176.981L167.753 141.911Z" stroke="url(#paint32_linear_789_3273)" stroke-width="0.5"/>
<path d="M125 141.911L86.2546 119.365L103.127 176.981L125 141.911Z" stroke="url(#paint33_linear_789_3273)" stroke-width="0.5"/>
<path d="M102.743 177.459L85.9664 120.17L79.7526 189.29L102.743 177.459Z" stroke="url(#paint34_linear_789_3273)" stroke-width="0.5"/>
<path d="M190.006 177.459L206.783 120.17L212.997 189.29L190.006 177.459Z" stroke="url(#paint35_linear_789_3273)" stroke-width="0.5"/>
<path d="M189.769 177.901L147.506 227.728L212.765 189.735L189.769 177.901Z" stroke="url(#paint36_linear_789_3273)" stroke-width="0.5"/>
<path d="M146.624 176.568V227.996L189.18 177.822L146.624 176.568Z" stroke="url(#paint37_linear_789_3273)" stroke-width="0.5"/>
<path d="M102.978 177.901L145.241 227.728L79.9819 189.735L102.978 177.901Z" stroke="url(#paint38_linear_789_3273)" stroke-width="0.5"/>
<path d="M146.124 176.568V227.996L103.567 177.822L146.124 176.568Z" stroke="url(#paint39_linear_789_3273)" stroke-width="0.5"/>
<path d="M146.124 111.587V91.127L87.3491 118.407L146.124 111.587Z" stroke="url(#paint40_linear_789_3273)" stroke-opacity="0.8" stroke-width="0.5"/>
<path opacity="0.16" d="M95.8209 125.831L114.271 116.985L132.721 125.831L134.663 148.147L114.271 160.411L93.8788 148.147L95.8209 125.831Z" fill="white" fill-opacity="0.6"/>
<path opacity="0.8" d="M125.074 141.561L130.84 138.699L136.605 141.561L137.212 148.781L130.84 152.749L124.467 148.781L125.074 141.561Z" fill="white" fill-opacity="0.4"/>
<path opacity="0.8" d="M134.392 148.052L137.851 146.361L141.311 148.052L141.675 152.319L137.851 154.663L134.028 152.319L134.392 148.052Z" fill="white" fill-opacity="0.88"/>
<g filter="url(#filter9_f_789_3273)">
<path d="M149.59 71.2655L146.148 83.5293L143.097 70.8037L135.651 42.7937L146.46 29.9999L157.269 42.7937L149.59 71.2655Z" fill="url(#paint41_linear_789_3273)"/>
</g>
<path d="M159.327 57.2861L146.202 50.0778L146.202 35.6613L159.327 42.8696L159.327 57.2861Z" fill="url(#paint42_linear_789_3273)"/>
<path d="M146.202 35.6612L146.202 50.0778L133.077 57.2861L133.077 42.8695L146.202 35.6612Z" fill="url(#paint43_linear_789_3273)"/>
<path d="M159.327 57.2858L146.202 64.4941L133.077 57.2858L146.202 50.0775L159.327 57.2858Z" fill="url(#paint44_linear_789_3273)"/>
<g filter="url(#filter10_f_789_3273)">
<path d="M218.817 207.78L209.084 198.186L222.495 202.405L252.38 211.062L258.925 227.321L241.571 229.783L218.817 207.78Z" fill="url(#paint45_linear_789_3273)"/>
</g>
<path d="M228.36 224.576L241.165 216.814L253.65 224.022L240.845 231.784L228.36 224.576Z" fill="url(#paint46_linear_789_3273)"/>
<path d="M253.65 224.023L241.165 216.815L241.485 201.845L253.97 209.053L253.65 224.023Z" fill="url(#paint47_linear_789_3273)"/>
<path d="M228.363 224.577L228.683 209.606L241.488 201.844L241.168 216.815L228.363 224.577Z" fill="url(#paint48_linear_789_3273)"/>
<g filter="url(#filter11_f_789_3273)">
<path d="M70.654 201.578L83.8827 197.915L73.4674 207.452L50.9072 229.074L33.4977 226.645L40.0983 210.353L70.654 201.578Z" fill="url(#paint49_linear_789_3273)"/>
</g>
<path d="M51.1583 201.548L51.4781 216.518L38.9931 223.727L38.6733 208.756L51.1583 201.548Z" fill="url(#paint50_linear_789_3273)"/>
<path d="M38.9903 223.727L51.4755 216.519L64.2804 224.281L51.7952 231.49L38.9903 223.727Z" fill="url(#paint51_linear_789_3273)"/>
<path d="M51.1557 201.548L63.9607 209.311L64.2805 224.281L51.4756 216.519L51.1557 201.548Z" fill="url(#paint52_linear_789_3273)"/>
<defs>
<filter id="filter0_f_789_3273" x="206.435" y="322.581" width="79.4096" height="49.9828" filterUnits="userSpaceOnUse" color-interpolation-filters="sRGB">
<feFlood flood-opacity="0" result="BackgroundImageFix"/>
<feBlend mode="normal" in="SourceGraphic" in2="BackgroundImageFix" result="shape"/>
<feGaussianBlur stdDeviation="0.4" result="effect1_foregroundBlur_789_3273"/>
</filter>
<filter id="filter1_f_789_3273" x="206.437" y="362.721" width="38.6588" height="9.84316" filterUnits="userSpaceOnUse" color-interpolation-filters="sRGB">
<feFlood flood-opacity="0" result="BackgroundImageFix"/>
<feBlend mode="normal" in="SourceGraphic" in2="BackgroundImageFix" result="shape"/>
<feGaussianBlur stdDeviation="0.4" result="effect1_foregroundBlur_789_3273"/>
</filter>
<filter id="filter2_f_789_3273" x="7.15508" y="322.581" width="79.4096" height="49.9828" filterUnits="userSpaceOnUse" color-interpolation-filters="sRGB">
<feFlood flood-opacity="0" result="BackgroundImageFix"/>
<feBlend mode="normal" in="SourceGraphic" in2="BackgroundImageFix" result="shape"/>
<feGaussianBlur stdDeviation="0.4" result="effect1_foregroundBlur_789_3273"/>
</filter>
<filter id="filter3_f_789_3273" x="47.9046" y="362.721" width="38.6588" height="9.84316" filterUnits="userSpaceOnUse" color-interpolation-filters="sRGB">
<feFlood flood-opacity="0" result="BackgroundImageFix"/>
<feBlend mode="normal" in="SourceGraphic" in2="BackgroundImageFix" result="shape"/>
<feGaussianBlur stdDeviation="0.4" result="effect1_foregroundBlur_789_3273"/>
</filter>
<filter id="filter4_f_789_3273" x="48.2046" y="309.499" width="196.588" height="54.5293" filterUnits="userSpaceOnUse" color-interpolation-filters="sRGB">
<feFlood flood-opacity="0" result="BackgroundImageFix"/>
<feBlend mode="normal" in="SourceGraphic" in2="BackgroundImageFix" result="shape"/>
<feGaussianBlur stdDeviation="0.25" result="effect1_foregroundBlur_789_3273"/>
</filter>
<filter id="filter5_d_789_3273" x="0.868652" y="0.538086" width="291.029" height="317.821" filterUnits="userSpaceOnUse" color-interpolation-filters="sRGB">
<feFlood flood-opacity="0" result="BackgroundImageFix"/>
<feColorMatrix in="SourceAlpha" type="matrix" values="0 0 0 0 0 0 0 0 0 0 0 0 0 0 0 0 0 0 127 0" result="hardAlpha"/>
<feOffset/>
<feGaussianBlur stdDeviation="20"/>
<feComposite in2="hardAlpha" operator="out"/>
<feColorMatrix type="matrix" values="0 0 0 0 0.125711 0 0 0 0 0.28388 0 0 0 0 0.520182 0 0 0 1 0"/>
<feBlend mode="normal" in2="BackgroundImageFix" result="effect1_dropShadow_789_3273"/>
<feBlend mode="normal" in="SourceGraphic" in2="effect1_dropShadow_789_3273" result="shape"/>
</filter>
<filter id="filter6_f_789_3273" x="56.5735" y="58.8105" width="179.618" height="201.79" filterUnits="userSpaceOnUse" color-interpolation-filters="sRGB">
<feFlood flood-opacity="0" result="BackgroundImageFix"/>
<feBlend mode="normal" in="SourceGraphic" in2="BackgroundImageFix" result="shape"/>
<feGaussianBlur stdDeviation="0.125" result="effect1_foregroundBlur_789_3273"/>
</filter>
<filter id="filter7_i_789_3273" x="61.9725" y="64.7236" width="168.823" height="189.452" filterUnits="userSpaceOnUse" color-interpolation-filters="sRGB">
<feFlood flood-opacity="0" result="BackgroundImageFix"/>
<feBlend mode="normal" in="SourceGraphic" in2="BackgroundImageFix" result="shape"/>
<feColorMatrix in="SourceAlpha" type="matrix" values="0 0 0 0 0 0 0 0 0 0 0 0 0 0 0 0 0 0 127 0" result="hardAlpha"/>
<feOffset/>
<feGaussianBlur stdDeviation="6"/>
<feComposite in2="hardAlpha" operator="arithmetic" k2="-1" k3="1"/>
<feColorMatrix type="matrix" values="0 0 0 0 0.346546 0 0 0 0 0.26919 0 0 0 0 0.566715 0 0 0 1 0"/>
<feBlend mode="normal" in2="shape" result="effect1_innerShadow_789_3273"/>
</filter>
<filter id="filter8_d_789_3273" x="19.4612" y="30.7354" width="253.823" height="257.941" filterUnits="userSpaceOnUse" color-interpolation-filters="sRGB">
<feFlood flood-opacity="0" result="BackgroundImageFix"/>
<feColorMatrix in="SourceAlpha" type="matrix" values="0 0 0 0 0 0 0 0 0 0 0 0 0 0 0 0 0 0 127 0" result="hardAlpha"/>
<feOffset/>
<feGaussianBlur stdDeviation="30"/>
<feComposite in2="hardAlpha" operator="out"/>
<feColorMatrix type="matrix" values="0 0 0 0 0.866667 0 0 0 0 0.87451 0 0 0 0 0.894118 0 0 0 1 0"/>
<feBlend mode="normal" in2="BackgroundImageFix" result="effect1_dropShadow_789_3273"/>
<feBlend mode="normal" in="SourceGraphic" in2="effect1_dropShadow_789_3273" result="shape"/>
</filter>
<filter id="filter9_f_789_3273" x="123.651" y="18" width="45.6177" height="77.5293" filterUnits="userSpaceOnUse" color-interpolation-filters="sRGB">
<feFlood flood-opacity="0" result="BackgroundImageFix"/>
<feBlend mode="normal" in="SourceGraphic" in2="BackgroundImageFix" result="shape"/>
<feGaussianBlur stdDeviation="6" result="effect1_foregroundBlur_789_3273"/>
</filter>
<filter id="filter10_f_789_3273" x="197.084" y="186.186" width="73.8411" height="55.5977" filterUnits="userSpaceOnUse" color-interpolation-filters="sRGB">
<feFlood flood-opacity="0" result="BackgroundImageFix"/>
<feBlend mode="normal" in="SourceGraphic" in2="BackgroundImageFix" result="shape"/>
<feGaussianBlur stdDeviation="6" result="effect1_foregroundBlur_789_3273"/>
</filter>
<filter id="filter11_f_789_3273" x="21.4977" y="185.915" width="74.385" height="55.1592" filterUnits="userSpaceOnUse" color-interpolation-filters="sRGB">
<feFlood flood-opacity="0" result="BackgroundImageFix"/>
<feBlend mode="normal" in="SourceGraphic" in2="BackgroundImageFix" result="shape"/>
<feGaussianBlur stdDeviation="6" result="effect1_foregroundBlur_789_3273"/>
</filter>
<linearGradient id="paint0_linear_789_3273" x1="193.081" y1="336.764" x2="296.022" y2="363.014" gradientUnits="userSpaceOnUse">
<stop stop-color="#316ABC"/>
<stop offset="0.25927" stop-color="#316ABC"/>
<stop offset="0.481904" stop-color="#2F5D9E"/>
<stop offset="0.652716" stop-color="#316ABC"/>
<stop offset="0.939201" stop-color="#1C519B"/>
</linearGradient>
<linearGradient id="paint1_linear_789_3273" x1="204.148" y1="366.36" x2="241.465" y2="362.757" gradientUnits="userSpaceOnUse">
<stop stop-color="#1563D1"/>
<stop offset="0.269339" stop-color="#1563D1"/>
<stop offset="0.538227" stop-color="#155EC5"/>
<stop offset="0.815081" stop-color="#1563D1"/>
<stop offset="1" stop-color="#0E59C3"/>
</linearGradient>
<linearGradient id="paint2_linear_789_3273" x1="6.5" y1="347.573" x2="93.2279" y2="374.595" gradientUnits="userSpaceOnUse">
<stop stop-color="#316ABC"/>
<stop offset="0.35411" stop-color="#316ABC"/>
<stop offset="0.461814" stop-color="#3776D0"/>
<stop offset="0.700297" stop-color="#316ABC"/>
<stop offset="0.980081" stop-color="#316ABC"/>
</linearGradient>
<linearGradient id="paint3_linear_789_3273" x1="52.0502" y1="362.5" x2="89.881" y2="371.764" gradientUnits="userSpaceOnUse">
<stop stop-color="#1563D1"/>
<stop offset="0.236009" stop-color="#1563D1"/>
<stop offset="0.425805" stop-color="#2975E0"/>
<stop offset="0.671285" stop-color="#1563D1"/>
<stop offset="0.968769" stop-color="#1563D1"/>
</linearGradient>
<linearGradient id="paint4_linear_789_3273" x1="53.5943" y1="301.764" x2="279.9" y2="367.372" gradientUnits="userSpaceOnUse">
<stop stop-color="#176DE6"/>
<stop offset="0.166653" stop-color="#3697F0"/>
<stop offset="0.380203" stop-color="#1672E7"/>
<stop offset="0.567711" stop-color="#1D81DB"/>
<stop offset="0.797998" stop-color="#176CE6"/>
<stop offset="1" stop-color="#1769E6"/>
</linearGradient>
<linearGradient id="paint5_linear_789_3273" x1="101.645" y1="61.6013" x2="204.491" y2="249.528" gradientUnits="userSpaceOnUse">
<stop stop-color="#1768E5"/>
<stop offset="1" stop-color="#04D9FB"/>
</linearGradient>
<linearGradient id="paint6_linear_789_3273" x1="103.688" y1="79.3615" x2="187.7" y2="239.135" gradientUnits="userSpaceOnUse">
<stop stop-color="#05D8FB"/>
<stop offset="1" stop-color="#1769E5"/>
</linearGradient>
<linearGradient id="paint7_linear_789_3273" x1="110.127" y1="77.6876" x2="197.08" y2="235.833" gradientUnits="userSpaceOnUse">
<stop stop-color="#DEF3FF"/>
<stop offset="1" stop-color="white"/>
</linearGradient>
<radialGradient id="paint8_radial_789_3273" cx="0" cy="0" r="1" gradientUnits="userSpaceOnUse" gradientTransform="translate(146.384 159.45) rotate(90) scale(97.022 84.4117)">
<stop stop-color="#F5F7FF"/>
<stop offset="1" stop-color="#4988D2"/>
</radialGradient>
<linearGradient id="paint9_linear_789_3273" x1="146.127" y1="63.3477" x2="146.127" y2="261.99" gradientUnits="userSpaceOnUse">
<stop stop-color="white"/>
<stop offset="1" stop-color="#DCDCDC" stop-opacity="0.12"/>
</linearGradient>
<linearGradient id="paint10_linear_789_3273" x1="242.597" y1="80.3335" x2="143.706" y2="253.101" gradientUnits="userSpaceOnUse">
<stop stop-color="white"/>
<stop offset="1" stop-color="#DCDCDC" stop-opacity="0.12"/>
</linearGradient>
<linearGradient id="paint11_linear_789_3273" x1="49.6572" y1="80.3335" x2="148.548" y2="253.101" gradientUnits="userSpaceOnUse">
<stop stop-color="white"/>
<stop offset="1" stop-color="#DCDCDC" stop-opacity="0.12"/>
</linearGradient>
<linearGradient id="paint12_linear_789_3273" x1="146.382" y1="181.941" x2="145.272" y2="278.046" gradientUnits="userSpaceOnUse">
<stop stop-color="#F1F1F1" stop-opacity="0"/>
<stop offset="1" stop-color="#A4B8D6"/>
</linearGradient>
<linearGradient id="paint13_linear_789_3273" x1="79.4613" y1="99.9952" x2="220.236" y2="222.95" gradientUnits="userSpaceOnUse">
<stop offset="0.146857" stop-color="#1768E5"/>
<stop offset="0.429505" stop-color="#1092ED"/>
<stop offset="0.848024" stop-color="#00F0FF"/>
</linearGradient>
<linearGradient id="paint14_linear_789_3273" x1="141.594" y1="100.634" x2="190.732" y2="135.021" gradientUnits="userSpaceOnUse">
<stop stop-color="#2251BD"/>
<stop offset="1" stop-color="#3383E8"/>
</linearGradient>
<linearGradient id="paint15_linear_789_3273" x1="95.3933" y1="130.33" x2="150.247" y2="101.688" gradientUnits="userSpaceOnUse">
<stop stop-color="#3A79F8"/>
<stop offset="1" stop-color="#3C57F7"/>
</linearGradient>
<linearGradient id="paint16_linear_789_3273" x1="102.404" y1="118.834" x2="102.404" y2="189.72" gradientUnits="userSpaceOnUse">
<stop stop-color="#2E35AC"/>
<stop offset="1" stop-color="#3061C2"/>
</linearGradient>
<linearGradient id="paint17_linear_789_3273" x1="190.346" y1="118.834" x2="190.346" y2="189.72" gradientUnits="userSpaceOnUse">
<stop stop-color="#2E35AC"/>
<stop offset="1" stop-color="#59A5EC"/>
</linearGradient>
<linearGradient id="paint18_linear_789_3273" x1="205.001" y1="209.199" x2="165.143" y2="190.744" gradientUnits="userSpaceOnUse">
<stop stop-color="#5DB9ED"/>
<stop offset="0.80744" stop-color="#579BEB"/>
</linearGradient>
<linearGradient id="paint19_linear_789_3273" x1="93.4815" y1="176.311" x2="155.061" y2="218.656" gradientUnits="userSpaceOnUse">
<stop stop-color="#2E35AC"/>
<stop offset="1" stop-color="#3380E5"/>
</linearGradient>
<linearGradient id="paint20_linear_789_3273" x1="133.948" y1="163.857" x2="215.587" y2="123.125" gradientUnits="userSpaceOnUse">
<stop stop-color="#5DB9ED"/>
<stop offset="1" stop-color="#579BEB"/>
</linearGradient>
<linearGradient id="paint21_linear_789_3273" x1="135.861" y1="133.523" x2="178.65" y2="177.496" gradientUnits="userSpaceOnUse">
<stop stop-color="#0418FC"/>
<stop offset="1" stop-color="#21C0FF"/>
</linearGradient>
<linearGradient id="paint22_linear_789_3273" x1="97.9432" y1="177.588" x2="150.895" y2="145.757" gradientUnits="userSpaceOnUse">
<stop stop-color="#2E57B3"/>
<stop offset="1" stop-color="#5599FF"/>
</linearGradient>
<linearGradient id="paint23_linear_789_3273" x1="125.346" y1="132.884" x2="201.92" y2="185.098" gradientUnits="userSpaceOnUse">
<stop stop-color="#3785D3"/>
<stop offset="1" stop-color="#497BE0"/>
</linearGradient>
<linearGradient id="paint24_linear_789_3273" x1="136.498" y1="114.045" x2="159.825" y2="147.845" gradientUnits="userSpaceOnUse">
<stop stop-color="#4F57E6"/>
<stop offset="0.0001" stop-color="#4D79EB"/>
<stop offset="1" stop-color="#47AAE7"/>
</linearGradient>
<linearGradient id="paint25_linear_789_3273" x1="162.942" y1="99.0374" x2="146.667" y2="111.457" gradientUnits="userSpaceOnUse">
<stop stop-color="#306ED8"/>
<stop offset="1" stop-color="#4980EA"/>
</linearGradient>
<linearGradient id="paint26_linear_789_3273" x1="206.275" y1="118.833" x2="160.38" y2="131.237" gradientUnits="userSpaceOnUse">
<stop stop-color="#4282EB"/>
<stop offset="1" stop-color="#539CEB"/>
</linearGradient>
<linearGradient id="paint27_linear_789_3273" x1="97.9422" y1="117.875" x2="132.058" y2="132.511" gradientUnits="userSpaceOnUse">
<stop stop-color="#5BA4FC"/>
<stop offset="1" stop-color="#669DF9"/>
</linearGradient>
<linearGradient id="paint28_linear_789_3273" x1="146.056" y1="112.128" x2="146.696" y2="141.823" gradientUnits="userSpaceOnUse">
<stop stop-color="#498CF0"/>
<stop offset="1" stop-color="#69A9EF"/>
</linearGradient>
<linearGradient id="paint29_linear_789_3273" x1="146.375" y1="176.311" x2="146.375" y2="141.825" gradientUnits="userSpaceOnUse">
<stop stop-color="#A4CFEF"/>
<stop offset="1" stop-color="#95C1F1"/>
</linearGradient>
<linearGradient id="paint30_linear_789_3273" x1="115.785" y1="157.47" x2="146.408" y2="175.932" gradientUnits="userSpaceOnUse">
<stop stop-color="#4E8EEE"/>
<stop offset="1" stop-color="#94C5F2"/>
</linearGradient>
<linearGradient id="paint31_linear_789_3273" x1="189.388" y1="177.267" x2="155.587" y2="161.039" gradientUnits="userSpaceOnUse">
<stop stop-color="#6D9EE7"/>
<stop offset="1" stop-color="#70AFDD"/>
</linearGradient>
<linearGradient id="paint32_linear_789_3273" x1="168.042" y1="142.143" x2="200.223" y2="142.779" gradientUnits="userSpaceOnUse">
<stop stop-color="#559FF0"/>
<stop offset="1" stop-color="#5C94E7"/>
</linearGradient>
<linearGradient id="paint33_linear_789_3273" x1="87.7502" y1="121.069" x2="111.41" y2="169.884" gradientUnits="userSpaceOnUse">
<stop stop-color="#558EE3"/>
<stop offset="0.281241" stop-color="#4C8ADD"/>
<stop offset="0.515626" stop-color="#5A94DF"/>
<stop offset="0.760427" stop-color="#528FD7"/>
<stop offset="1" stop-color="#5496E1"/>
</linearGradient>
<linearGradient id="paint34_linear_789_3273" x1="88.7032" y1="123.304" x2="89.6631" y2="176.948" gradientUnits="userSpaceOnUse">
<stop stop-color="#4B5DCE"/>
<stop offset="0.317701" stop-color="#2D4BB9"/>
<stop offset="0.531251" stop-color="#2D54BE"/>
<stop offset="0.770844" stop-color="#2E5CC1"/>
<stop offset="1" stop-color="#4D7BD9"/>
</linearGradient>
<linearGradient id="paint35_linear_789_3273" x1="211.694" y1="166.73" x2="190.329" y2="176.913" gradientUnits="userSpaceOnUse">
<stop stop-color="#5898E7"/>
<stop offset="1" stop-color="#5C9CF1"/>
</linearGradient>
<linearGradient id="paint36_linear_789_3273" x1="192.256" y1="201.536" x2="189.696" y2="177.908" gradientUnits="userSpaceOnUse">
<stop stop-color="#77B1E6"/>
<stop offset="1" stop-color="#5EAEF1"/>
</linearGradient>
<linearGradient id="paint37_linear_789_3273" x1="170.271" y1="200.258" x2="146.322" y2="176.042" gradientUnits="userSpaceOnUse">
<stop stop-color="#6EB9F4"/>
<stop offset="1" stop-color="#70BCF3"/>
</linearGradient>
<linearGradient id="paint38_linear_789_3273" x1="121.521" y1="213.669" x2="102.978" y2="177.939" gradientUnits="userSpaceOnUse">
<stop stop-color="#417ACF"/>
<stop offset="1" stop-color="#4B5FBF"/>
</linearGradient>
<linearGradient id="paint39_linear_789_3273" x1="124.388" y1="201.855" x2="146.427" y2="176.357" gradientUnits="userSpaceOnUse">
<stop stop-color="#589EE7"/>
<stop offset="1" stop-color="#76C2F9"/>
</linearGradient>
<linearGradient id="paint40_linear_789_3273" x1="124.388" y1="98.0794" x2="146.08" y2="111.449" gradientUnits="userSpaceOnUse">
<stop offset="0.0610616" stop-color="#709AEE"/>
<stop offset="1" stop-color="#64A0FC"/>
</linearGradient>
<linearGradient id="paint41_linear_789_3273" x1="146.46" y1="81.176" x2="146.46" y2="30.0009" gradientUnits="userSpaceOnUse">
<stop stop-color="#05D6FB" stop-opacity="0.4"/>
<stop offset="1" stop-color="#176BE6" stop-opacity="0.12"/>
</linearGradient>
<linearGradient id="paint42_linear_789_3273" x1="155.706" y1="55.2894" x2="155.99" y2="37.483" gradientUnits="userSpaceOnUse">
<stop stop-color="#1769E5"/>
<stop offset="1" stop-color="#05D8FB"/>
</linearGradient>
<linearGradient id="paint43_linear_789_3273" x1="146.212" y1="39.6596" x2="130.253" y2="48.9611" gradientUnits="userSpaceOnUse">
<stop stop-color="#1769E5"/>
<stop offset="1" stop-color="#05D8FB"/>
</linearGradient>
<linearGradient id="paint44_linear_789_3273" x1="155.674" y1="59.2613" x2="140.065" y2="49.4331" gradientUnits="userSpaceOnUse">
<stop stop-color="#1769E5"/>
<stop offset="1" stop-color="#05D8FB"/>
</linearGradient>
<linearGradient id="paint45_linear_789_3273" x1="211.126" y1="199.725" x2="258.924" y2="227.321" gradientUnits="userSpaceOnUse">
<stop stop-color="#05D6FB" stop-opacity="0.4"/>
<stop offset="1" stop-color="#176BE6" stop-opacity="0.12"/>
</linearGradient>
<linearGradient id="paint46_linear_789_3273" x1="231.9" y1="222.439" x2="247.179" y2="231.587" gradientUnits="userSpaceOnUse">
<stop stop-color="#1769E5"/>
<stop offset="1" stop-color="#05D8FB"/>
</linearGradient>
<linearGradient id="paint47_linear_789_3273" x1="250.183" y1="222.033" x2="250.107" y2="203.561" gradientUnits="userSpaceOnUse">
<stop stop-color="#1769E5"/>
<stop offset="1" stop-color="#05D8FB"/>
</linearGradient>
<linearGradient id="paint48_linear_789_3273" x1="228.479" y1="220.425" x2="244.795" y2="211.822" gradientUnits="userSpaceOnUse">
<stop stop-color="#1769E5"/>
<stop offset="1" stop-color="#05D8FB"/>
</linearGradient>
<linearGradient id="paint49_linear_789_3273" x1="81.5186" y1="198.919" x2="33.4984" y2="226.644" gradientUnits="userSpaceOnUse">
<stop stop-color="#05D6FB" stop-opacity="0.4"/>
<stop offset="1" stop-color="#176BE6" stop-opacity="0.12"/>
</linearGradient>
<linearGradient id="paint50_linear_789_3273" x1="51.2397" y1="205.682" x2="35.677" y2="214.34" gradientUnits="userSpaceOnUse">
<stop stop-color="#1769E5"/>
<stop offset="1" stop-color="#05D8FB"/>
</linearGradient>
<linearGradient id="paint51_linear_789_3273" x1="42.448" y1="221.72" x2="58.483" y2="230.89" gradientUnits="userSpaceOnUse">
<stop stop-color="#1769E5"/>
<stop offset="1" stop-color="#05D8FB"/>
</linearGradient>
<linearGradient id="paint52_linear_789_3273" x1="54.6931" y1="203.724" x2="53.9862" y2="222.157" gradientUnits="userSpaceOnUse">
<stop stop-color="#1769E5"/>
<stop offset="1" stop-color="#05D8FB"/>
</linearGradient>
</defs>
</svg>
