<?xml version="1.0" encoding="UTF-8"?>
<svg version="1.1" viewBox="0 0 2048 2048" width="24" height="24" xmlns="http://www.w3.org/2000/svg">
<path class="fill" transform="translate(420,102)" d="m0 0h1021l15 1 15 4 11 6 9 7 9 10 8 14 3 8 2 11 1 16v53h78l15 1 12 4 14 7 9 7 8 8 8 14 5 15 1 7 1 800 16 8 9 7 8 8 8 14 3 12 1 7v19h58l16 2 14 5 14 8 10 9 8 10 8 17 2 9 1 11v630l-1 14-4 15-7 14-12 13-12 9-11 5-16 4-6 1h-722l-18-4-16-8-10-8-7-7-8-12-5-14-3-15v-4h-567l-15-4-12-6-13-12-8-10-7-15-3-11-1-10v-63h-92l-12-3-14-7-11-9-9-11-8-15-3-10-1-7-1-41v-1202l1-90 3-7 9-11 12-14 7-9h2l2-4 13-15 9-11 9-10 8-10 10-11 8-10 7-9h2l2-4 9-10 9-11 2-3h2l2-4 12-14 9-11 10-11 8-10 10-11 8-10 7-9h2l2-4 8-9 4-3zm26 43-1 1-1 163-2 14-5 12-7 12-9 10-11 8-15 6-10 2-133 1-2 1v1298l2 11 6 9 9 6 16 2h700v-153l-52-1-7-3-7-6-3-7v-408l4-8 5-5 6-3 4-1h143l11 4 6 7 3 9 1 44h17l1-19 2-12 4-12 8-12 7-7 14-9 12-5 1-65 3-8 2-4 10-5 10-1h131l11 1 8 5 5 6 2 6 1 141h124v-1e3l-4-10-5-5-4-3-6-2-11-1zm-45 38-9 10-9 11-7 8-9 11-10 11-8 10-13 15-4 5v2h-2l-9 11-13 15-9 11-10 11-9 11-4 4v2h103l9-3 6-4 6-8 2-11v-122zm1113 92-1 807v88h75l2-27 4-15 7-11 4-5 10-7 5-3 1-2v-801l-3-10-7-8-7-4-10-2zm-309 779v48l12 9 9 10 5 10 3 9 1 7 1 23 4 1 63-1v-116zm441 82-7 3-5 5-2 4-1 8v67l2 8 6 7 5 2h10l7-4 4-5 2-11v-66l-2-8-4-6-6-3zm-472 0-9 3-6 7-1 3-1 33v40l2 8 6 7 7 3 9-1 6-4 4-4 2-11v-68l-3-8-5-5-3-2zm-218 13v355l5 1h20l2-1 1-267 2-12 4-12 6-10 10-12 2-1v-2l4-2 9-6 13-6 19-3 1-2v-20zm102 64-12 2-9 5-7 9-3 9v97h768l2-1 1-45v-48l-3-11-6-8-6-5-9-3-9-1h-55l-2 21-2 9-6 12-6 8-8 7-14 8-13 4h-20l-13-4-13-7-13-13-6-10-4-12-2-23h-352l-2 23-4 12-6 10-8 9-10 7-11 5-10 3h-20l-13-4-11-6-10-9-7-8-5-10-3-11-2-21zm-30 164-1 1-1 416 1 86 4 9 5 6 9 5 7 2h720l10-3 8-6v-2h2l4-8 1-4 1-47v-454l-1-1zm-627 366v67l4 10 9 8 9 3h560v-88z"/>
<path class="fill" transform="translate(639,423)" d="m0 0h24l27 3 23 5 20 6 20 8 23 12 14 9 19 14 15 13 12 12 7 8 10 13 12 19 7 12 9 20 7 20 5 18 4 22 2 19v29l-3 26-4 20-6 20-10 24-12 23-10 15-13 17-10 11-7 8-13 12-13 10-15 10-16 9-19 9-33 11-29 6-15 2h-43l-29-5-19-5-25-9-20-9-22-13-16-12-14-12-13-13-9-11-13-17-12-19-9-17-8-19-7-21-5-22-3-23v-43l4-27 7-26 10-26 8-16 10-17 12-17 12-14 5-6h2l2-4 15-13 10-8 20-14 22-12 21-9 25-8 29-6zm-6 44-21 3-17 4-20 7-27 13-12 8-13 10-14 12-10 10-9 11-10 14-9 15-10 21-8 24-5 26-1 10v31l3 23 6 24 8 20 8 17 12 19 18 22 14 14 17 13 16 10 15 8 23 9 21 6 19 3 10 1h29l23-3 23-6 24-9 21-11 12-8 12-9 10-9 13-13 7-8 13-18 6-10 10-21 7-19 5-20 3-21v-39l-3-21-6-23-8-20-8-16-9-15-13-17-12-13-12-11-20-15-17-10-20-9-24-8-18-4-14-2z"/>
<path class="fill" transform="translate(1267,678)" d="m0 0h8l8 3 5 5 3 5 2 7 13 102 1 7v17l-4 7-7 6-6 2h-11l-7-3-5-6-3-10-5-36-3-24-10 12-13 17-13 15-12 14-11 12-14 15-37 37h-2v2l-7 6h-2v2l-8 7-14 12-16 13-14 11-19 14-18 13-27 18-40 24-28 15-19 10-23 11-41 18-25 10-26 10-25 9-53 17-43 11-29 7-52 10-48 7-48 5-40 3-24 1h-35l-6-3-6-5-4-7v-12l4-8 8-6 9-2 64-3 46-4 56-7 41-7 37-8 40-10 45-13 38-13 37-14 35-15 26-12 44-22 24-14 23-13 35-23 15-10 17-12 25-20 17-14 10-9 8-7 14-13 8-7 12-12h2v-2h2v-2l8-7 4-5h2l2-4 10-10 9-11 10-11 9-11 11-14 14-19-9 2-56 7h-14l-6-3-7-8-3-9 1-8 4-8 7-5 15-3 101-13z"/>
<path class="fill" transform="translate(688,1194)" d="m0 0h137l9 2 8 5 4 5 2 6v316l-3 9-6 7-6 3-5 1h-146l-7-3-8-7-2-3-1-5v-319l4-8 7-6 5-2zm21 43-2 1v267h97l1-3v-264l-1-1z"/>
<path class="fill" transform="translate(441,1262)" d="m0 0h135l9 2 6 4 5 6 3 7v246l-2 9-7 8-6 3-6 1h-145l-7-3-7-6-3-5-1-5-1-27v-152l1-70 4-8 8-7 4-2zm17 44v198l16 1h81l1-1v-190l-1-8z"/>
<path class="fill" transform="translate(646,512)" d="m0 0h11l8 4 5 6 3 8 1 16 13 4 10 6 9 7 10 10 8 13 5 15 2 18-3 9-6 8-9 4h-8l-9-4-8-9-4-20-4-8-6-5-9-4-14-2-13 2-10 4-4 2v2h-2l-2 5-3 8v16l4 8 8 6 16 5 32 8 13 5 11 6 10 8 9 10 7 16 3 15v20l-4 16-7 14-9 10-5 5-8 6-14 7-10 2v16l-2 7-5 7-8 4-10 1-10-4-6-7-2-6-1-12v-5l-12-4-15-8-10-9v-2h-2l-8-11-5-10-4-13-1-6v-11l3-9 5-6 5-3 10-2 10 3 7 6 3 8 3 16 4 8 8 7 15 4h12l13-3 10-7 4-7 2-8v-10l-2-8-4-6-8-5-14-4-32-8-16-6-11-6-10-9-6-7-7-14-3-12-1-7v-16l3-14 4-11 7-11 9-10 11-9 15-7 8-1v-14l2-9 6-8 5-3z"/>
<path class="fill" transform="translate(1371,1733)" d="m0 0h80l13 3 9 5 5 4 7 11 2 9v74l-3 13-7 10-8 6-7 3-6 1h-89l-9-2-9-7-7-8-4-11-1-5v-73l3-12 7-9 7-6 8-4zm10 43-1 2v48l1 3 59 1 3-1 1-52-1-1z"/>
<path class="fill" transform="translate(1373,1568)" d="m0 0h74l13 1 9 4 10 9 6 10 2 7v74l-3 12-7 11-8 6-10 4-5 1h-85l-10-3-9-6-6-7-5-9-2-8v-74l3-10 8-11 9-7 7-3zm8 44-1 2v50l61 1 3-2v-50l-1-1z"/>
<path class="fill" transform="translate(1374,1404)" d="m0 0h70l14 1 11 4 9 7 7 11 2 7v75l-3 13-7 10-11 8-10 3h-88l-10-3-9-7-6-7-4-8-2-8v-75l3-10 7-9 7-6 8-4zm7 43-1 4v48l60 1 4-1v-50l-1-2z"/>
<path class="fill" transform="translate(1167,1404)" d="m0 0h71l13 1 11 4 8 6 6 8 3 6 1 4v79l-3 9-5 9-8 7-8 4-7 2h-87l-10-3-9-6-6-7-5-10-1-4-1-20v-16l1-46 3-7 7-9 8-6 10-4zm7 43v52h63v-52z"/>
<path class="fill" transform="translate(1577,1733)" d="m0 0h79l12 2 12 6 7 7 5 10 1 4 1 64-1 16-2 9-6 9-9 8-8 3-6 1h-88l-9-2-11-8-6-8-3-8-1-6v-77l3-9 6-9 9-7 11-4zm10 43v53h63v-53z"/>
<path class="fill" transform="translate(1580,1404)" d="m0 0h71l13 1 11 4 8 6 7 9 3 7 1 22-1 59-2 8-6 10-9 8-10 4-5 1h-86l-10-3-8-6-7-8-5-9-1-6v-79l3-8 8-10 11-7zm9 43-2 1v51h63v-52z"/>
<path class="fill" transform="translate(1164,1733)" d="m0 0h80l14 3 10 6 7 8 4 9 1 4v78l-2 9-6 10-8 7-9 4-5 1h-90l-8-2-9-6-7-8-4-9-1-4v-81l3-9 7-9 8-6 10-4zm10 43v53l61 1 2-2v-52z"/>
<path class="fill" transform="translate(1167,1568)" d="m0 0h76l13 2 8 4 9 9 5 8 2 7v77l-3 10-6 10-7 6-8 4-8 2h-86l-10-3-9-6-6-7-5-11-1-4-1-33 1-47 4-9 9-10 8-6 5-2zm7 44v52l61 1 2-1v-52z"/>
<path class="fill" transform="translate(1580,1568)" d="m0 0h75l12 1 10 5 7 6 7 11 2 6v79l-3 10-6 9-8 7-11 4-5 1h-84l-13-4-9-7-8-13-2-8v-78l4-10 11-12 8-5zm7 44v52l60 1 3-1v-52z"/>
</svg>
