<?xml version="1.0" encoding="UTF-8"?>
<svg version="1.1" viewBox="0 0 2048 2048" width="512" height="512" xmlns="http://www.w3.org/2000/svg">
<path transform="translate(1e3)" d="m0 0h36l17 5 12 5 12 7 11 9 11 11 10 15 7 16 4 15 1 6v25l-4 19-7 16-9 15-14 15-12 9-15 8-6 3-1 177 11-1h178l32 2 25 4 26 7 24 9 25 12 24 15 14 11 13 11 6 5v2l4 2 14 15 5 6 2 1h180l9-2 9-5 5-5 5-8 2-7 1-184-9-3-16-9-11-10-5-5-8-9-9-15-6-15-4-20v-19l3-17 6-17 8-14 8-10 7-8 10-8 11-7 12-6 13-4 13-2h23l17 3 13 5 15 8 14 11 10 11 7 10 8 16 5 16 2 13v18l-3 17-4 12-8 16-7 10-11 12-10 8-16 9-9 3v177l-2 21-5 17-8 16-7 10-9 10-9 8-14 9-11 5-17 5-16 2h-139l9 16 12 20 14 24 13 22 34 58 15 25 2 5h277l11-3 9-6 6-7 3-7 1-5v-80l-16-8-11-7-12-11-10-12-8-14-6-15-3-12-1-7v-20l4-20 5-13 8-15 9-11 11-11 13-9 16-8 19-5 8-1h19l17 3 12 4 14 7 14 10 13 13 10 15 7 15 6 21v29l-5 18-8 18-8 12-9 10-11 10-15 9-11 5-1 66-1 23-4 17-6 15-10 16-12 13-11 9-14 8-16 6-15 3-11 1h-236l10 16 15 26 15 25 17 29 10 18 9 19 8 22 7 27 4 21 1 1h108l8-16 9-13 11-12 14-11 15-8 15-5 11-2h29l18 4 18 8 13 9 13 12 9 12 7 12 6 15 4 16v28l-6 21-7 15-7 11-9 11-9 8-10 7-16 8-17 5-10 2h-24l-18-4-15-6-12-7-10-8-13-13-10-15-6-14h-110l-5 26-6 22-7 20-8 18-12 22-20 34-17 28-10 18-9 15 242 1 18 3 16 6 14 8 11 9 10 10 9 13 8 16 4 12 2 11 1 27v62l9 3 11 6 12 9 6 5v2h2l11 14 9 17 7 21 1 5v28l-5 19-8 18-8 12-11 12-8 7-11 7-12 6-20 6-14 2h-11l-15-2-14-4-16-7-13-9-13-12-10-13-8-15-5-15-3-16v-19l3-17 5-14 9-17 8-10 5-6 11-9 14-9 11-5h2l-1-82-4-10-6-8-8-5-9-3h-279l-8 13-14 24-17 29-16 27-14 24-13 22-17 29-1 2h145l17 3 16 6 14 8 11 9 11 11 10 15 7 15 4 14 1 7 1 18v170l1 3 17 8 14 10 13 13 10 15 7 15 4 13 2 13v18l-3 18-7 19-8 13-7 9-6 7-14 11-17 9-15 5-9 2-10 1h-15l-14-2-18-6-17-9-13-11-8-8-10-14-8-17-4-14-2-12v-19l4-20 6-15 8-14 9-11 9-9 14-10 15-7h3l-1-185-4-10-6-8-10-6-8-2h-184l-12 14-19 19-14 11-12 9-16 10-16 9-22 10-30 10-29 6-15 2-13 1-78 1h-125l1 176 15 7 12 8 12 11 8 9 7 11 7 14 5 18 1 6v26l-4 18-7 16-7 12-9 11-8 8-13 9-16 8-18 6-4 1h-33l-24-8-12-6-11-8-10-9-8-9-9-14-6-14-4-14-2-14v-12l3-19 6-17 9-16 8-10 5-6 11-9 13-8 11-5h2l1-177-202-1-23-2-27-5-21-6-25-9-16-7-24-15-14-10-14-11-16-15-10-10-7-8v-2l-3-1h-184l-10 3-9 7-6 9-2 6-1 8v178l5 1 16 8 14 11 7 7 9 12 6 10 6 15 4 16 1 17-1 14-5 19-7 16-9 13-11 12-11 9-16 9-18 6-9 2-10 1h-14l-19-3-16-6-14-8-10-8-8-7-10-13-8-14-5-13-4-18v-24l3-16 6-16 8-14 8-10 13-13 14-9 15-7 1-185 2-14 5-16 8-16 9-12 8-9 14-11 17-9 16-5 12-2h146l-10-18-16-27-15-26-9-15-17-29-13-22-10-17-9-16h-279l-8 2-10 6-7 9-3 8-1 12v70l16 8 11 7 12 11 9 10 8 13 7 16 3 11 2 15v12l-3 19-5 15-7 14-9 12-10 11-15 11-17 8-17 5-14 2h-12l-19-3-12-4-16-8-10-7-10-9-9-10-8-13-6-13-4-12-2-9v-32l8-24 8-15 11-14 12-11 16-10 11-5h2v-82l3-19 6-16 6-11 7-11 9-10 11-9 13-8 11-5 13-4 13-2 243-1-16-28-13-22-17-29-13-22-12-23-10-25-7-24-5-25v-6l-112 1-4 10-6 11-10 13-8 8-15 11-17 8-19 5-6 1h-24l-18-4-17-7-11-7-10-8-9-9-10-14-8-16-6-19v-36l6-19 8-16 7-11 9-10 11-9 11-7 12-6 17-5 7-1h29l17 4 16 7 14 9 12 11 8 9 10 16 4 9v2l111 1 2-11 4-20 7-24 10-25 10-20 16-27 14-24 13-22 14-24 4-7-238-1-21-3-16-6-13-7-13-10-9-9-9-12-8-15-5-15-2-10-1-10v-80l-6-2-15-8-12-9-12-12-7-10-9-17-6-19-1-5v-31l6-20 8-16 6-9 11-13 14-11 14-8 16-6 18-3h18l14 2 16 5 14 7 11 8 10 9 8 9 9 14 6 14 5 19 1 10v11l-3 20-7 19-8 14-11 13-11 10-11 7-14 7-3 1v76l2 10 4 8 5 5 5 4 10 4 5 1h275l4-4 12-21 16-27 34-58 16-27 14-24 5-9h-143l-18-3-16-6-15-8-11-9-10-10-10-14-8-17-5-19-1-9-1-184-16-8-11-7-13-12-9-11-9-15-6-17-3-14v-24l3-16 5-14 7-13 9-13 12-12 13-9 16-8 13-4 12-2h24l16 3 14 5 16 9 11 9 11 11 10 15 7 15 4 14 2 18-1 18-4 17-7 16-6 10-11 14-13 11-15 9-9 4h-2v179l2 10 4 8 4 5 7 5 8 3 6 1h180l4-2 8-10 9-10h2l1-3 8-7 14-12 14-10 19-12 19-10 19-8 24-8 22-5 18-3 12-1 25-1h184v-176l-16-8-12-8-12-11-7-8-9-14-7-17-4-16-1-9v-12l3-19 6-17 7-13 9-12 7-8 14-11 19-10z" fill="#E5EBFC"/>
<path transform="translate(1e3)" d="m0 0h36l17 5 12 5 12 7 11 9 11 11 10 15 7 16 4 15 1 6v25l-4 19-7 16-9 15-14 15-12 9-15 8-6 3-1 177 11-1h178l32 2 25 4 26 7 24 9 25 12 24 15 14 11 13 11 6 5v2l4 2 14 15 5 6 2 1h180l9-2 9-5 5-5 5-8 2-7 1-184-9-3-16-9-11-10-5-5-8-9-9-15-6-15-4-20v-19l3-17 6-17 8-14 8-10 7-8 10-8 11-7 12-6 13-4 13-2h23l17 3 13 5 15 8 14 11 10 11 7 10 8 16 5 16 2 13v18l-3 17-4 12-8 16-7 10-11 12-10 8-16 9-9 3v177l-2 21-5 17-8 16-7 10-9 10-9 8-14 9-11 5-17 5-16 2h-139l9 16 12 20 14 24 13 22 34 58 15 25 2 5h277l11-3 9-6 6-7 3-7 1-5v-80l-16-8-11-7-12-11-10-12-8-14-6-15-3-12-1-7v-20l4-20 5-13 8-15 9-11 11-11 13-9 16-8 19-5 8-1h19l17 3 12 4 14 7 14 10 13 13 10 15 7 15 6 21v29l-5 18-8 18-8 12-9 10-11 10-15 9-11 5-1 66-1 23-4 17-6 15-10 16-12 13-11 9-14 8-16 6-15 3-11 1h-236l10 16 15 26 15 25 17 29 10 18 9 19 8 22 7 27 4 21 1 1h108l8-16 9-13 11-12 14-11 15-8 15-5 11-2h29l18 4 18 8 13 9 13 12 9 12 7 12 6 15 4 16v28l-6 21-7 15-7 11-9 11-9 8-10 7-16 8-17 5-10 2h-24l-18-4-15-6-12-7-10-8-13-13-10-15-6-14h-110l-5 26-6 22-7 20-8 18-12 22-20 34-17 28-10 18-9 15 242 1 18 3 16 6 14 8 11 9 10 10 9 13 8 16 4 12 2 11 1 27v62l9 3 11 6 12 9 6 5v2h2l11 14 9 17 7 21 1 5v28l-5 19-8 18-8 12-11 12-8 7-11 7-12 6-20 6-14 2h-11l-15-2-14-4-16-7-13-9-13-12-10-13-8-15-5-15-3-16v-19l3-17 5-14 9-17 8-10 5-6 11-9 14-9 11-5h2l-1-82-4-10-6-8-8-5-9-3h-279l-8 13-14 24-17 29-16 27-14 24-13 22-17 29-1 2h145l17 3 16 6 14 8 11 9 11 11 10 15 7 15 4 14 1 7 1 18v170l1 3 17 8 14 10 13 13 10 15 7 15 4 13 2 13v18l-3 18-7 19-8 13-7 9-6 7-14 11-17 9-15 5-9 2-10 1h-15l-14-2-18-6-17-9-13-11-8-8-10-14-8-17-4-14-2-12v-19l4-20 6-15 8-14 9-11 9-9 14-10 15-7h3l-1-185-4-10-6-8-10-6-8-2h-184l-12 14-19 19-14 11-12 9-16 10-16 9-22 10-30 10-29 6-15 2-13 1-78 1h-125l1 176 15 7 12 8 12 11 8 9 7 11 7 14 5 18 1 6v26l-4 18-7 16-7 12-9 11-8 8-13 9-16 8-18 6-4 1h-33l-24-8-12-6-11-8-10-9-8-9-9-14-6-14-4-14-2-14v-12l3-19 6-17 9-16 8-10 5-6 11-9 13-8 11-5h2l1-177-171-1-7-2v-2h-3v-2l-4-2-5-4-6-12-1-4v-12l5-14 7-7 9-4 4-2 12-1h385l48-1 26-4 22-6 16-6 17-8 17-10 16-12 10-9 13-13 9-11 10-15 18-30 15-26 9-15 17-29 13-22 14-24 16-27 10-17 16-27 14-24 12-20 11-19 13-22 20-34 13-22 14-24 12-23 9-25 5-25 2-20v-20l-2-22-6-26-6-17-7-17-12-22-21-35-13-22-20-34-13-22-15-25-12-21-16-27-7-12-11-19-10-17-13-22-10-17-17-29-15-25-15-26-13-21-11-15-9-10-7-8-11-10-13-10-16-10-21-11-21-8-23-6-20-3-22-1h-454l-21 2-26 6-17 6-18 8-17 10-14 10-13 11-12 11-8 9-10 13-14 22-13 23-8 13-14 24-20 34-14 24-12 20-28 48-12 20-15 26-9 15-13 22-14 24-26 44-16 27-10 18-8 19-7 24-3 15-2 18v27l3 24 6 24 6 17 7 16 14 24 13 22 8 13 6 11 14 24 6 10 20 34 14 24 12 20 28 48 12 20 8 13 6 11 14 24 8 13 11 19 16 27 14 24 8 14 6 9 3 8v13l-7 14-8 7-12 5-9 1-199 1-10 3-9 7-6 9-2 6-1 8v178l5 1 16 8 14 11 7 7 9 12 6 10 6 15 4 16 1 17-1 14-5 19-7 16-9 13-11 12-11 9-16 9-18 6-9 2-10 1h-14l-19-3-16-6-14-8-10-8-8-7-10-13-8-14-5-13-4-18v-24l3-16 6-16 8-14 8-10 13-13 14-9 15-7 1-185 2-14 5-16 8-16 9-12 8-9 14-11 17-9 16-5 12-2h146l-10-18-16-27-15-26-9-15-17-29-13-22-10-17-9-16h-279l-8 2-10 6-7 9-3 8-1 12v70l16 8 11 7 12 11 9 10 8 13 7 16 3 11 2 15v12l-3 19-5 15-7 14-9 12-10 11-15 11-17 8-17 5-14 2h-12l-19-3-12-4-16-8-10-7-10-9-9-10-8-13-6-13-4-12-2-9v-32l8-24 8-15 11-14 12-11 16-10 11-5h2v-82l3-19 6-16 6-11 7-11 9-10 11-9 13-8 11-5 13-4 13-2 243-1-16-28-13-22-17-29-13-22-12-23-10-25-7-24-5-25v-6l-112 1-4 10-6 11-10 13-8 8-15 11-17 8-19 5-6 1h-24l-18-4-17-7-11-7-10-8-9-9-10-14-8-16-6-19v-36l6-19 8-16 7-11 9-10 11-9 11-7 12-6 17-5 7-1h29l17 4 16 7 14 9 12 11 8 9 10 16 4 9v2l111 1 2-11 4-20 7-24 10-25 10-20 16-27 14-24 13-22 14-24 4-7-238-1-21-3-16-6-13-7-13-10-9-9-9-12-8-15-5-15-2-10-1-10v-80l-6-2-15-8-12-9-12-12-7-10-9-17-6-19-1-5v-31l6-20 8-16 6-9 11-13 14-11 14-8 16-6 18-3h18l14 2 16 5 14 7 11 8 10 9 8 9 9 14 6 14 5 19 1 10v11l-3 20-7 19-8 14-11 13-11 10-11 7-14 7-3 1v76l2 10 4 8 5 5 5 4 10 4 5 1h275l4-4 12-21 16-27 34-58 16-27 14-24 5-9h-143l-18-3-16-6-15-8-11-9-10-10-10-14-8-17-5-19-1-9-1-184-16-8-11-7-13-12-9-11-9-15-6-17-3-14v-24l3-16 5-14 7-13 9-13 12-12 13-9 16-8 13-4 12-2h24l16 3 14 5 16 9 11 9 11 11 10 15 7 15 4 14 2 18-1 18-4 17-7 16-6 10-11 14-13 11-15 9-9 4h-2v179l2 10 4 8 4 5 7 5 8 3 6 1h180l4-2 8-10 9-10h2l1-3 8-7 14-12 14-10 19-12 19-10 19-8 24-8 22-5 18-3 12-1 25-1h184v-176l-16-8-12-8-12-11-7-8-9-14-7-17-4-16-1-9v-12l3-19 6-17 7-13 9-12 7-8 14-11 19-10z" fill="#418AFC"/>
<path transform="translate(790,443)" d="m0 0h454l22 1 25 4 24 7 21 9 19 10 16 11 17 14 10 10 7 8 10 13 12 19 14 24 26 44 9 15 8 13 6 11 13 22 20 34 14 24 17 29 14 24 9 15 30 51 13 22 18 30 10 17 7 16 5 11 6 19 5 22 2 22v20l-2 20-5 25-6 17-7 16-10 19-26 44-10 17-16 27-14 24-20 34-9 15-14 24-9 15-17 29-14 24-9 15-17 29-16 27-15 26-9 15-12 19-10 14-14 15-12 12-19 14-23 13-21 9-20 6-19 4-15 2-48 1h-385l-12 1-11 5-8 7-5 14v12l4 10 2 3v3l4 2 5 4v2h3v2l7 1v1h-31l-23-2-27-5-21-6-25-9-16-7-24-15-14-10-14-11-16-15-10-10-7-8v-2l-3-1v-1l24-2 12-5 7-6 7-14v-13l-4-10-7-10-12-22-8-13-10-17-14-24-9-15-14-24-7-11-6-11-20-34-9-15-14-24-13-22-14-24-10-17-11-19-8-13-11-19-10-17-13-22-14-24-8-16-7-19-6-23-3-17-1-11v-27l3-24 7-27 6-16 8-16 10-18 10-17 12-20 10-17 14-24 26-44 14-24 13-22 14-24 26-44 14-24 13-22 40-68 9-15 12-18 14-17 10-10 22-18 19-12 16-8 17-7 16-5 25-5zm9 69-21 2-17 4-16 6-15 8-14 10-15 14-10 12-14 22-14 24-10 17-13 22-17 29-10 17-13 22-17 29-10 17-13 22-17 29-10 17-39 66-16 27-14 24-9 17-5 14-4 17-1 11v29l3 18 7 20 14 25 15 25 8 14 13 22 11 19 13 22 10 17 13 22 17 29 10 17 13 22 20 34 13 22 11 19 13 22 10 17 14 24 13 22 9 12 9 10 4 5 11 9 10 7 19 10 21 7 19 3 458 1 17-1 16-3 21-7 21-11 12-9 12-11 9-10 12-18 12-20 11-19 12-20 11-19 15-25 9-16 8-13 11-19 13-22 20-34 16-27 8-14 9-15 11-19 20-34 11-19 18-30 12-23 6-17 4-19 1-9v-17l-3-19-5-19-7-16-9-17-20-34-13-22-14-24-9-15-16-28-8-13-17-29-16-27-14-24-9-15-15-26-8-13-11-19-40-68-7-11-12-16-4-5h-2l-2-4-11-10-13-9-21-11-18-6-16-3-25-1z" fill="#C1D5FC"/>
<path transform="translate(799,512)" d="m0 0h440l25 1 19 4 15 5 23 12 13 10 11 10v2h2l11 14 7 10 12 20 14 24 30 51 13 22 14 24 9 15 11 19 9 15 17 29 13 22 10 17 11 19 9 15 10 17 14 24 20 34 12 23 6 18 4 21 1 7v17l-2 13-4 18-6 16-13 25-8 13-12 20-8 14-20 34-14 24-9 15-28 48-12 20-28 48-12 20-28 48-12 20-14 24-13 21-9 12-9 10-12 11-15 10-19 9-18 6-16 3-17 1-458-1-19-3-21-7-19-10-14-10-9-8-7-8-11-14-12-20-22-38-15-25-15-26-9-15-14-24-9-15-14-24-16-27-11-19-29-49-11-19-13-22-14-24-17-29-12-21-7-20-3-18v-29l2-15 4-17 8-18 14-25 15-25 26-44 17-29 13-22 17-29 13-22 16-27 15-26 12-20 17-29 16-27 14-24 16-27 12-18 12-14 13-12 18-12 17-8 16-5 16-3zm-7 68-16 4-13 7-10 9-9 10-9 15-13 22-15 26-12 20-13 22-15 26-13 22-12 20-8 14-10 17-16 27-10 17-14 24-9 15-10 17-14 24-13 22-18 30-6 15-2 8v21l5 17 12 22 10 17 8 13 11 19 10 17 12 20 14 24 10 17 13 22 14 24 9 15 15 26 8 13 12 21 8 13 8 14 9 15 14 24 10 17 13 22 9 14 7 9 12 9 15 7 12 3h461l14-3 10-4 11-7 10-9 4-5 11-17 6-11 14-24 13-22 20-34 13-22 10-17 13-22 14-24 26-44 11-19 13-22 7-11 6-11 16-27 14-24 9-15 11-19 6-16 1-6v-19l-4-15-8-16-8-14-9-15-10-17-13-22-8-14-9-15-10-17-13-22-8-14-9-15-10-17-13-22-30-51-13-22-14-24-10-17-15-25-12-21-8-11-9-10-10-8-13-6-11-3-8-1z" fill="#418AFD"/>
<path transform="translate(792,580)" d="m0 0h459l16 3 12 5 11 7 10 10 10 14 16 28 12 20 14 24 10 17 13 22 20 34 16 27 11 19 15 25 14 24 11 19 15 25 14 24 11 19 12 20 10 17 8 16 4 15v19l-3 12-5 12-14 24-9 15-11 19-13 22-7 11-6 11-16 27-14 24-10 17-13 22-20 34-16 27-14 24-10 17-16 27-14 24-10 17-11 18-6 8-7 7-14 9-10 4-14 3h-461l-5-1v-1h438l2-6 9-14 9-15 16-28 13-22 14-24 26-44 14-24 17-29 14-24 10-17 16-27 12-20 14-24 32-54 12-22 7-16 4-16 1-6v-18l-4-21-4-12-8-16-6-11-7-11-6-11-15-25-8-13-5-9-2-3-2 10-6 12-5 6-11 7-6 2-40 1-1 59v186l-4 10-9 10-8 5-10 3-10-1-12-6-7-6-6-12-1-5-1-242-1-1-38-1-11-4-9-7v-2h-2l-6-11-1-4v-11l4-11 6-8 10-7 6-2 8-1 144 1 8 3 7 3 4 3-3-6-6-7-10-15-14-25-9-15-10-17-13-22-8-13-9-15-6-11-34-58-10-17-8-14-17-28-9-13-3-5h-427l-12 2-11 4-12 7-13 13v-3l12-12 14-8 12-4z" fill="#C2D5FC"/>
<path transform="translate(754,452)" d="m0 0 3 2-1 6-6 7-8 7-16 16-11 14-11 15-32 54-8 14-14 24-16 27-34 58-13 22-14 24-16 27-17 29-16 27-17 29-14 24-13 22-15 29-7 17-3 9-2 16-5 16-3 16-1 13v19l3 21 6 23 3 15 9 24 8 16 9 17 13 22 17 29 13 22 10 17 16 27 14 24 12 20 15 26 13 22 12 20 15 26 13 22 15 26 13 22 18 30 12 19 11 16 10 13 10 11 5 6 8 7 12 10 15 10 13 5 30 1-3 4-9 4-7 8-4 12v12l4 10 2 3v3l4 2 5 4v2h3v2l7 1v1h-31l-23-2-27-5-21-6-25-9-16-7-24-15-14-10-14-11-16-15-10-10-7-8v-2l-3-1v-1l24-2 12-5 7-6 7-14v-13l-4-10-7-10-12-22-8-13-10-17-14-24-9-15-14-24-7-11-6-11-20-34-9-15-14-24-13-22-14-24-10-17-11-19-8-13-11-19-10-17-13-22-14-24-8-16-7-19-6-23-3-17-1-11v-27l3-24 7-27 6-16 8-16 10-18 10-17 12-20 10-17 14-24 26-44 14-24 13-22 14-24 26-44 14-24 13-22 40-68 9-15 12-18 14-17 10-10 22-18 19-12 20-10 8-2 12-4z" fill="#FAFBFC"/>
<path transform="translate(1245,444)" d="m0 0h21l25 4 24 7 21 9 19 10 16 11 17 14 10 10 7 8 10 13 12 19 14 24 26 44 9 15 8 13 6 11 13 22 20 34 14 24 17 29 14 24 9 15 30 51 13 22 18 30 10 17 7 16 5 11 6 19 5 22 2 22v20l-2 20-5 25-6 17-7 16-10 19-26 44-10 17-16 27-14 24-20 34-9 15-14 24-9 15-17 29-14 24-9 15-17 29-16 27-15 26-9 15-12 19-10 14-14 15-12 12-19 14-23 13-21 9-20 6-19 4-15 2-48 1h-51l-94-1v-1l189-1 21-3 6-4 6-8 9-7 13-12 7-6 1-2h2l2-4 10-14 7-10 13-22 6-9 6-10 3-6h2l1-5 5-9 5-7 3-6 9-16 5-7 6-11 10-17 1-3h2l2-5 7-12 1-3h2l2-5 5-9 8-14 4-6 15-27h2l2-7 6-9 3-5 9-16 4-5 6-13h2l2-5 5-9 6-10 5-9 3-4 6-11 4-6 6-11 6-9 7-12 5-8 9-16 9-15 16-32 6-16 4-15v-10h-2l-2 7-2 1 1-5 5-17 3-14 1-9v-17l-3-19-5-19-7-16-9-17-7-12 1-2 8 13 11 19 6 13 2-1-1-6-4-15-6-17-15-30-15-27-8-13-11-19-20-34-9-15-10-17-16-27-9-15-5-9-16-27-8-14-10-17-7-11-6-11-10-17-28-48-9-15-3-6v-2h-2l-3-6-7-11-5-9-13-22-6-8v-2h-2l-6-8v-2h-2l-6-7v-2l-4-2-5-6-8-7-14-11-5-5-9-6-6-2-7-1-19-1z" fill="#A1C0FC"/>
<path transform="translate(681,853)" d="m0 0 10 1 12 6 10 11 24 39 24 38 13 21 15 24 8 13 12 19 9 14 2 1v-158l3-10 8-10 9-6 9-3h9l11 4 10 8 6 9 2 7v287l-6 12-6 7-14 7-10 1-12-4-9-7-6-7-25-40-12-19-13-21-12-19-13-21-12-19-7-11-11-17-1-1-1 15v138l-2 10-6 10-8 7-8 4-11 2-12-3-9-6-5-5-5-9-2-10v-278l3-12 7-9 10-7z" fill="#418AFD"/>
<path transform="translate(989,853)" d="m0 0h138l11 2 10 6 7 8 5 11v15l-3 7-6 9-9 7-10 3h-108v70l11-1h63l11 4 8 7 4 5 4 8 2 8-1 10-5 10-8 9-10 5-3 1-15 1h-29l-32-1v109l-2 7-8 11-10 7-7 3-10 1-11-4-10-7-6-8-3-10v-287l4-9 7-8 8-6 6-2z" fill="#418AFD"/>
<path transform="translate(1229,853)" d="m0 0 144 1 8 3 6 4 8 9 4 10 1 10-2 8-4 8-5 6-11 7-6 2-40 1-1 59v186l-4 10-9 10-8 5-10 3-10-1-12-6-7-6-6-12-1-5-1-242-1-1-38-1-11-4-9-7v-2h-2l-6-11-1-4v-11l4-11 6-8 10-7 6-2z" fill="#418AFD"/>
<path transform="translate(883,1263)" d="m0 0h283l9 3 8 6 8 10 4 11v10l-7 14-7 7-8 5-10 2h-269l-14-1-9-4-9-7-6-10-2-5v-12l3-10 6-8 7-6 8-4z" fill="#418AFD"/>
<path transform="translate(882,717)" d="m0 0h286l9 4 8 6 6 9 4 10v11l-7 14-8 8-8 4-3 1h-288l-10-4-7-5-7-10-3-8v-12l4-11 9-10 6-4z" fill="#418AFD"/>
<path transform="translate(1018,1911)" d="m0 0h11l10 3 6 4 7 6 5 10 2 13-2 9-6 12-8 7-11 5-11 1-13-4-9-6-4-5-4-8-2-6v-13l5-12 8-9 12-6z" fill="#E5EBFC"/>
<path transform="translate(336,136)" d="m0 0h11l11 4 9 7 6 9 3 10v10l-4 11-8 10-10 6-7 2h-13l-12-5-9-8-5-11-1-4v-12l4-11 4-6 7-6 10-5z" fill="#A1C0FC"/>
<path transform="translate(1701,136)" d="m0 0h11l9 3 9 5 8 11 2 6v19l-5 10-7 8-12 6-4 1h-12l-11-4-9-7-6-10-2-7v-12l4-11 7-9 12-7z" fill="#A1C0FC"/>
<path transform="translate(337,1843)" d="m0 0h11l12 5 8 7 5 8 3 10v8l-3 10-6 9-7 6-7 4-7 2h-11l-11-4-9-7-6-9-2-8v-13l5-13 8-8 9-5z" fill="#A1C0FC"/>
<path transform="translate(1018,68)" d="m0 0h12l11 4 8 6 4 5 5 12v15l-3 8-6 8-6 5-8 4-6 2h-11l-13-5-9-8-5-10-1-4v-15l4-10 7-8 9-6z" fill="#A1C0FC"/>
<path transform="translate(1701,1843)" d="m0 0h11l10 3 9 6 6 8 3 8v18l-4 10-9 9-9 5-7 2h-10l-11-4-8-6-6-8-4-10v-13l4-10 6-8 5-4 7-4z" fill="#A1C0FC"/>
<path transform="translate(1938,1502)" d="m0 0h16l9 4 6 4 6 7 4 9 1 5v10l-3 10-7 9-9 7-8 3h-16l-9-4-9-7-6-10-2-9v-8l4-13 9-10 9-5z" fill="#A1C0FC"/>
<path transform="translate(1938,990)" d="m0 0h15l10 4 9 7 6 11 2 8v8l-4 12-7 9-8 6-9 3h-15l-12-5-9-9-4-10-1-4v-12l4-11 6-8 9-6z" fill="#A1C0FC"/>
<path transform="translate(1939,478)" d="m0 0h15l9 4 6 4 7 9 3 7 1 5v10l-3 10-7 9-6 5-8 4-3 1h-16l-12-6-6-5-6-10-2-9v-8l4-13 9-10 12-6z" fill="#A1C0FC"/>
<path transform="translate(96,478)" d="m0 0h15l9 4 8 6 6 10 2 5v17l-4 9-6 8-9 6-7 3h-16l-9-4-6-4-6-7-4-8-1-4v-13l4-11 7-8 8-6z" fill="#A1C0FC"/>
<path transform="translate(95,1502)" d="m0 0h15l10 4 8 6 5 7 3 8v17l-4 9-6 8-9 6-8 3h-15l-10-4-9-8-6-11-1-4v-13l4-11 7-8 8-6z" fill="#A1C0FC"/>
<path transform="translate(95,990)" d="m0 0h15l10 4 8 6 4 5 4 11v16l-4 9-6 8-8 6-9 3h-15l-9-4-6-4-6-7-4-8-1-4v-14l4-10 7-8 8-6z" fill="#A1C0FC"/>
<path transform="translate(691,1579)" d="m0 0 11 1 9 4 8 6 6 10 2 5 1 9-2 9-5 10-7 7-12 6-4 1-15-1-12-6-7-10-4-13v-10l1-7h2l2-6 4-5 10-7z" fill="#418AFC"/>
<path transform="translate(448,1063)" d="m0 0h1l5 22 2 9 9 24 8 16 9 17 13 22 17 29 13 22 10 17 16 27 14 24 12 20 15 26 13 22 12 20 15 26 13 22 15 26 13 22 18 30 12 19 11 16 10 13 10 11 5 6 8 7 1 2-4-2-4-3v-2l-4-2-8-8v-2h-2l-13-17-6-8-10-15-7-12-6-10-7-11-11-17-6-11-17-29-13-22-15-26-10-17-16-27-14-24-24-40-8-14-8-13-15-26-9-15-12-21-16-27-9-16-8-15-7-16-3-8-3-12-5-21z" fill="#E6ECFD"/>
<path transform="translate(1018,1911)" d="m0 0h11l10 3 6 4 1 2-4-2-11-4h-14l-7 3-9 6-5 6-3 6-1 5v10l4 13 7 8 10 5 4 1h14l10-4 8-7 6-10 1 3-6 10-9 7-9 4-11 1-13-4-9-6-4-5-4-8-2-6v-13l5-12 8-9 12-6z" fill="#B0C9FC"/>
<path transform="translate(454,969)" d="m0 0 1 3-4 11-4 17-1 11v29l3 18 7 20 14 25 6 10-1 2-10-16-8-14-4-8-1-6h-2l-5-20-2-16v-19l2-19 5-21 2-5h2z" fill="#AAC6FC"/>
<path transform="translate(766,447)" d="m0 0h5v3l-14 11-2-1 1-6-2-1-13 1-14 5-3-1 16-6 10-3z" fill="#D9E4FC"/>
<path transform="translate(820,878)" d="m0 0 1 4-1 158-4-2 1-2 2 1v-157z" fill="#ACC7FC"/>
<path transform="translate(466,923)" d="m0 0 1 2-8 18-4 12-2 16-5 16h-1v-8l2-7 3-17 8-21z" fill="#E6ECFD"/>
<path transform="translate(746,1435)" d="m0 0 6 3 8 8v5l-8-3-4-5-2-5z" fill="#EFF3FC"/>
<path transform="translate(668,492)" d="m0 0 2 1-14 15-12 11v-3l11-12z" fill="#DCE6FC"/>
<path transform="translate(1018,1911)" d="m0 0h11l10 3 6 4 1 2-4-2-11-4h-14l-7 3-5 3-2-1 4-4z" fill="#B1CAFC"/>
<path transform="translate(1e3 1918)" d="m0 0 2 1-8 10-3 6-1 5-1 15-2-3v-13l5-12z" fill="#ADC7FC"/>
<path transform="translate(991,1950)" d="m0 0h1l4 13 7 8 14 7h-7l-10-6-5-6-4-8z" fill="#B1CAFC"/>
<path transform="translate(1265,585)" d="m0 0h8l11 6 1 3-10-3-10-5z" fill="#D4E1FC"/>
<path transform="translate(788,1604)" d="m0 0h29l-3 4-5 1-1-4h-20z" fill="#E1E9FC"/>
<path transform="translate(1031,1977)" d="m0 0h6l-3 2-8 2-10-1-3-2z" fill="#ABC6FC"/>
<path transform="translate(712,463)" d="m0 0h3l-1 3-10 5-1 1h-5l3-3z" fill="#CADAFC"/>
<path transform="translate(660,499)" d="m0 0 2 1-11 11-7 8v-3l11-12z" fill="#AEC8FC"/>
<path transform="translate(702,1645)" d="m0 0 3 1-7 3h-8l-5-2v-1h13z" fill="#AEC8FC"/>
<path transform="translate(556,1117)" d="m0 0 3 1 6 11-1 3-8-13z" fill="#B2CBFC"/>
</svg>
